<?xml version="1.0" encoding="UTF-8" standalone="no"?><!DOCTYPE svg PUBLIC "-//W3C//DTD SVG 1.1//EN" "http://www.w3.org/Graphics/SVG/1.1/DTD/svg11.dtd"><svg width="213px" height="86px" version="1.1" xmlns="http://www.w3.org/2000/svg" xmlns:xlink="http://www.w3.org/1999/xlink" xml:space="preserve" xmlns:serif="http://www.serif.com/" style="fill-rule:evenodd;clip-rule:evenodd;stroke-linejoin:round;stroke-miterlimit:2;"><g transform="matrix(1,0,0,1,-1567.25336,-2298.018773)"><g transform="matrix(1.481445,0,0,1.481445,953.893836,1746.634482)"><path d="M521,375C521,375 524,375 532,375C534,375 534,375 535,376C536,376 542,377 547,382C549,383 549,383 550,385C551,386 552,387 552,387C552,387 553,387 553,388C554,390 554,390 555,392C556,394 556,394 557,397C557,402 557,402 557,407C555,412 555,412 552,415C550,417 551,418 548,418C548,418 548,418 545,420C544,419 544,420 543,420C542,418 547,416 549,411C557,389 528,372 512,385C506,389 506,393 506,393C507,396 508,388 516,386C542,378 550,423 517,422C508,422 506,419 503,415C502,414 501,413 501,413C500,413 500,413 500,412C500,409 499,409 498,405C498,401 498,401 498,397C499,396 499,395 499,394C499,394 500,393 500,392C506,379 511,378 516,376C518,376 520,375 521,375Z" style="fill:rgb(17,17,17);fill-opacity:1;"/></g><g transform="matrix(1.481445,0,0,1.481445,953.893836,1746.634482)"><path d="M442,375C447,375 447,374 453,375C457,376 459,377 459,377C465,380 465,381 465,381C466,381 466,381 467,382C477,392 476,401 475,406C474,411 474,411 471,414C471,414 470,415 469,416C466,419 467,420 463,421C458,422 458,422 454,422L453,422C451,422 440,420 436,409C431,394 447,379 460,386C460,386 467,390 463,386C455,376 422,378 425,407C425,413 430,417 431,418C430,419 430,419 428,419C420,416 418,408 418,407C418,406 418,406 417,404C417,401 417,402 417,399L418,395C420,389 420,389 426,382C431,378 436,377 437,376C438,376 438,376 439,376C440,376 441,375 442,375Z" style="fill:rgb(17,18,18);fill-opacity:1;"/></g><g transform="matrix(1.481445,0,0,1.481445,953.893836,1746.634482)"><path d="M545,420L545,420C544,420 544,421 542,421C538,421 521,426 515,424C514,424 514,423 514,423C515,423 516,423 517,422C550,423 542,378 516,386C508,388 507,396 506,393C506,393 506,389 512,385C528,372 557,389 549,411C547,416 542,418 543,420C544,420 544,419 545,420Z" style="fill:rgb(250,251,250);fill-opacity:0.99;"/></g><g transform="matrix(1.481445,0,0,1.481445,953.893836,1746.634482)"><path d="M431,418C430,417 425,413 425,407C422,378 455,376 463,386C467,390 460,386 460,386C447,379 431,394 436,409C440,420 451,422 453,422C451,423 450,423 449,424C447,424 448,423 445,423C444,423 444,422 431,421C429,420 429,420 429,420C428,420 428,419 428,419C428,419 429,419 430,419C430,419 431,420 431,418C431,418 431,418 431,418Z" style="fill:rgb(251,251,251);fill-opacity:0.99;"/></g><g transform="matrix(1.481445,0,0,1.481445,953.893836,1746.634482)"><path d="M513,391C518,387 522,391 522,393C525,402 507,400 513,391Z" style="fill:rgb(253,253,252);fill-opacity:1;"/></g><g transform="matrix(1.481445,0,0,1.481445,953.893836,1746.634482)"><path d="M459,377C463,376 463,376 464,376C465,378 465,378 465,378C465,378 465,378 466,378C470,380 469,382 473,384C473,386 473,386 473,386C473,387 473,387 474,387C476,391 475,391 477,395C476,401 477,407 477,408C477,408 476,409 476,410C475,408 475,408 475,406C476,401 477,392 467,382C466,381 466,381 465,381C465,381 465,380 459,377Z" style="fill:rgb(227,226,224);fill-opacity:0.56;"/></g><g transform="matrix(1.481445,0,0,1.481445,953.893836,1746.634482)"><path d="M449,395C449,394 450,387 456,391C463,394 452,405 449,395Z" style="fill:rgb(253,253,253);fill-opacity:1;"/></g><g transform="matrix(1.481445,0,0,1.481445,953.893836,1746.634482)"><path d="M434,375C435,375 436,376 437,376C436,377 431,378 426,382C420,389 420,389 418,395L417,391L417,390C419,388 420,387 420,386C420,386 421,384 421,384C422,384 422,384 422,383C422,383 422,383 423,382C425,382 425,382 427,381L427,379C429,378 429,378 430,377C431,377 431,377 431,376C433,375 434,375 434,375Z" style="fill:rgb(216,216,215);fill-opacity:0.65;"/></g><g transform="matrix(1.481445,0,0,1.481445,953.893836,1746.634482)"><path d="M513,375C514,375 515,376 516,376C511,378 506,379 500,392C500,391 500,391 499,388C499,388 500,385 503,383C504,382 504,382 505,381C505,380 510,376 513,375Z" style="fill:rgb(230,229,227);fill-opacity:0.58;"/></g><g transform="matrix(1.481445,0,0,1.481445,953.893836,1746.634482)"><path d="M524,373C527,373 527,373 529,373C530,373 535,373 536,374C535,375 535,375 532,375C524,375 521,375 521,375C518,374 518,374 517,374C520,373 520,373 524,373Z" style="fill:rgb(230,230,229);fill-opacity:0.67;"/></g><g transform="matrix(1.481445,0,0,1.481445,953.893836,1746.634482)"><path d="M417,404C418,406 418,406 418,407C418,408 420,416 428,419L430,419C429,419 428,419 428,419C427,419 424,419 423,417C421,417 420,416 420,416C419,414 419,414 418,413C418,412 419,412 417,411C415,408 416,408 417,404Z" style="fill:rgb(216,216,214);fill-opacity:0.74;"/></g><g transform="matrix(1.481445,0,0,1.481445,953.893836,1746.634482)"><path d="M500,412C500,413 500,413 501,413C501,415 501,415 503,415C506,419 508,422 517,422C516,423 515,423 514,423C513,423 512,423 512,423C511,423 511,422 511,422C510,422 510,423 510,422C508,422 509,421 508,421C506,421 507,421 506,420C505,420 503,419 503,419C503,419 502,419 502,419C502,418 502,418 501,418C501,417 501,417 501,416C500,416 500,416 500,415C500,414 500,413 500,412Z" style="fill:rgb(210,209,208);fill-opacity:0.78;"/></g><g transform="matrix(1.481445,0,0,1.481445,953.893836,1746.634482)"><path d="M416,395C418,398 417,398 417,399C417,402 417,401 417,404C416,408 415,408 417,411C419,412 418,412 418,413C416,411 416,411 416,411C416,411 415,411 415,406C415,405 415,404 415,402C415,399 415,400 414,396C414,396 414,396 416,395Z" style="fill:rgb(201,200,198);fill-opacity:0.29;"/></g><g transform="matrix(1.481445,0,0,1.481445,953.893836,1746.634482)"><path d="M497,394C498,397 498,397 498,397C498,401 498,401 498,405C498,408 498,407 497,409L496,409C496,407 496,406 496,405C496,403 496,400 496,400C496,399 496,398 496,397C496,395 496,395 497,394Z" style="fill:rgb(235,235,235);fill-opacity:0.77;"/></g><g transform="matrix(1.481445,0,0,1.481445,953.893836,1746.634482)"><path d="M457,374C459,374 459,374 460,374C461,376 462,375 464,376C463,376 463,376 459,377C459,377 457,376 453,375C455,375 454,375 457,374Z" style="fill:rgb(192,191,188);fill-opacity:0.48;"/></g><g transform="matrix(1.481445,0,0,1.481445,953.893836,1746.634482)"><path d="M557,413C556,414 556,414 555,416C547,420 547,420 546,420L545,420L545,420C548,418 548,418 548,418C551,418 550,417 552,415C553,415 553,416 557,413Z" style="fill:rgb(206,205,203);fill-opacity:0.61;"/></g><g transform="matrix(1.481445,0,0,1.481445,953.893836,1746.634482)"><path d="M463,421C465,422 464,422 467,422C466,423 466,423 465,423C460,422 461,423 460,423L456,423C455,423 454,423 454,422C458,422 458,422 463,421Z" style="fill:rgb(184,184,182);fill-opacity:0.6;"/></g><g transform="matrix(1.481445,0,0,1.481445,953.893836,1746.634482)"><path d="M557,407C558,409 558,409 558,412C557,412 557,412 557,413C553,416 553,415 552,415C555,412 555,412 557,407Z" style="fill:rgb(209,208,205);fill-opacity:0.69;"/></g><g transform="matrix(1.481445,0,0,1.481445,953.893836,1746.634482)"><path d="M498,405C499,409 500,409 500,412C500,413 500,414 500,415C499,415 499,414 498,414C498,412 498,412 498,411C498,410 497,410 497,409C498,407 498,408 498,405Z" style="fill:rgb(201,200,199);fill-opacity:0.64;"/></g><g transform="matrix(1.481445,0,0,1.481445,953.893836,1746.634482)"><path d="M443,373C448,372 450,372 452,373C449,373 448,375 443,373Z" style="fill:rgb(166,165,162);fill-opacity:0.16;"/></g><g transform="matrix(1.481445,0,0,1.481445,953.893836,1746.634482)"><path d="M417,391L418,395L417,399C417,398 418,398 416,395L416,394C417,393 417,393 417,391Z" style="fill:rgb(207,205,205);fill-opacity:0.6;"/></g><g transform="matrix(1.481445,0,0,1.481445,953.893836,1746.634482)"><path d="M453,422L454,422C454,423 455,423 456,423C453,425 453,424 449,424C450,423 451,423 453,422Z" style="fill:rgb(208,208,206);fill-opacity:0.68;"/></g><g transform="matrix(1.481445,0,0,1.481445,953.893836,1746.634482)"><path d="M499,392C499,392 499,393 499,394C499,395 499,396 498,397C498,397 498,397 497,394L497,393C498,393 498,392 499,392Z" style="fill:rgb(204,203,203);fill-opacity:0.73;"/></g><g transform="matrix(1.481445,0,0,1.481445,953.893836,1746.634482)"><path d="M499,389L499,388C500,391 500,391 500,392C500,393 499,394 499,394C499,393 499,392 499,392C499,390 499,390 499,390C499,389 499,389 499,389Z" style="fill:rgb(174,173,172);fill-opacity:0.62;"/></g><g transform="matrix(1.481445,0,0,1.481445,953.893836,1746.634482)"><path d="M417,390L417,391C417,393 417,393 416,394C416,394 416,393 416,393C415,393 414,393 414,392C414,392 416,391 417,390Z" style="fill:rgb(130,129,127);fill-opacity:0.02;"/></g><g transform="matrix(1.481445,0,0,1.481445,953.893836,1746.634482)"><path d="M485,401C488,403 484,404 484,402C484,401 484,401 485,401Z" style="fill:none;"/></g><g transform="matrix(1.481445,0,0,1.481445,953.893836,1746.634482)"><path d="M485,428C486,428 486,428 486,429C486,431 482,430 485,428Z" style="fill:none;"/></g><g transform="matrix(1.481445,0,0,1.481445,953.893836,1746.634482)"><path d="M553,388C556,389 556,389 556,389C556,389 555,392 555,392C554,390 554,390 553,388Z" style="fill:rgb(187,186,186);fill-opacity:0.79;"/></g><g transform="matrix(1.481445,0,0,1.481445,953.893836,1746.634482)"><path d="M553,383C554,384 555,384 555,384C555,386 554,386 555,387C555,387 554,387 553,387C553,386 554,385 553,385C553,384 553,384 553,383Z" style="fill:rgb(152,149,146);fill-opacity:0.04;"/></g><g transform="matrix(1.481445,0,0,1.481445,953.893836,1746.634482)"><path d="M465,423C464,423 464,423 464,424C463,424 463,424 463,424C462,424 463,424 460,423C461,423 460,422 465,423Z" style="fill:rgb(174,172,168);fill-opacity:0.16;"/></g><g transform="matrix(1.481445,0,0,1.481445,953.893836,1746.634482)"><path d="M547,382C549,382 549,383 550,385C549,383 549,383 547,382Z" style="fill:rgb(181,180,180);fill-opacity:0.84;"/></g><g transform="matrix(1.481445,0,0,1.481445,953.893836,1746.634482)"><path d="M425,381C425,381 426,381 427,381C425,382 425,382 423,382C424,382 424,382 425,381Z" style="fill:rgb(205,204,202);fill-opacity:0.33;"/></g><g transform="matrix(1.481445,0,0,1.481445,953.893836,1746.634482)"><path d="M524,373C527,372 526,372 529,373C527,373 527,373 524,373Z" style="fill:rgb(154,153,151);fill-opacity:0.11;"/></g><g transform="matrix(1.481445,0,0,1.481445,953.893836,1746.634482)"><path d="M424,379C427,379 427,379 427,379L427,381C426,381 425,381 425,381L424,379Z" style="fill:rgb(174,173,169);fill-opacity:0.09;"/></g><g transform="matrix(1.481445,0,0,1.481445,953.893836,1746.634482)"><path d="M545,420L546,420C545,421 544,421 542,421C544,421 544,420 545,420Z" style="fill:rgb(211,210,208);fill-opacity:0.6;"/></g><g transform="matrix(1.481445,0,0,1.481445,953.893836,1746.634482)"><path d="M546,378C547,378 547,378 549,379C549,379 547,379 547,379C546,379 546,378 546,378Z" style="fill:rgb(152,150,148);fill-opacity:0.06;"/></g><g transform="matrix(1.481445,0,0,1.481445,953.893836,1746.634482)"><path d="M473,384C474,386 473,386 474,387C473,387 473,387 473,386C473,386 473,386 473,384Z" style="fill:rgb(148,146,144);fill-opacity:0.08;"/></g><g transform="matrix(1.481445,0,0,1.481445,953.893836,1746.634482)"><path d="M505,426C507,428 507,428 506,428C505,429 505,428 505,426Z" style="fill:none;"/></g><g transform="matrix(1.481445,0,0,1.481445,953.893836,1746.634482)"><path d="M442,375C441,375 440,376 439,376C439,376 439,375 439,374C440,374 440,374 442,375Z" style="fill:rgb(155,155,154);fill-opacity:0.86;"/></g><g transform="matrix(1.481445,0,0,1.481445,953.893836,1746.634482)"><path d="M550,385C550,385 552,386 552,386C553,386 552,386 552,387C552,387 551,386 550,385Z" style="fill:rgb(165,166,165);fill-opacity:0.84;"/></g><g transform="matrix(1.481445,0,0,1.481445,953.893836,1746.634482)"><path d="M431,418C431,418 431,418 431,418C431,420 430,419 430,419L428,419C430,419 430,419 431,418Z" style="fill:rgb(148,149,148);fill-opacity:0.93;"/></g><g transform="matrix(1.481445,0,0,1.481445,953.893836,1746.634482)"><path d="M471,414C470,416 470,416 470,416C470,417 470,416 469,416C470,415 471,414 471,414Z" style="fill:rgb(143,142,142);fill-opacity:0.92;"/></g><g transform="matrix(1.481445,0,0,1.481445,953.893836,1746.634482)"><path d="M424,379C426,379 426,379 427,379C427,379 427,379 424,379Z" style="fill:rgb(128,127,123);fill-opacity:0.02;"/></g><g transform="matrix(1.481445,0,0,1.481445,953.893836,1746.634482)"><path d="M501,413C501,413 502,414 503,415C501,415 501,415 501,413Z" style="fill:rgb(141,140,140);fill-opacity:0.89;"/></g><g transform="matrix(1.481445,0,0,1.481445,953.893836,1746.634482)"><path d="M464,376C465,377 466,378 466,378C465,378 465,378 465,378C465,378 465,378 464,376Z" style="fill:rgb(128,128,125);fill-opacity:0.14;"/></g><g transform="matrix(1.481445,0,0,1.481445,953.893836,1746.634482)"><path d="M496,397C496,398 496,399 496,400C496,398 496,398 496,397Z" style="fill:rgb(160,159,158);fill-opacity:0.03;"/></g><g transform="matrix(1.481445,0,0,1.481445,953.893836,1746.634482)"><path d="M415,402C415,404 415,405 415,406C415,404 415,404 415,402Z" style="fill:rgb(173,173,170);fill-opacity:0.04;"/></g><g transform="matrix(1.481445,0,0,1.481445,953.893836,1746.634482)"><path d="M496,405C496,406 496,407 496,409C496,407 496,407 496,405Z" style="fill:rgb(158,157,154);fill-opacity:0.09;"/></g></g></svg>