<?xml version="1.0" encoding="UTF-8" standalone="no"?><!DOCTYPE svg PUBLIC "-//W3C//DTD SVG 1.1//EN" "http://www.w3.org/Graphics/SVG/1.1/DTD/svg11.dtd"><svg width="201px" height="164px" version="1.1" xmlns="http://www.w3.org/2000/svg" xmlns:xlink="http://www.w3.org/1999/xlink" xml:space="preserve" xmlns:serif="http://www.serif.com/" style="fill-rule:evenodd;clip-rule:evenodd;stroke-linejoin:round;stroke-miterlimit:2;"><g transform="matrix(1,0,0,1,-899.182723,-2423.06625)"><g transform="matrix(1.481445,0,0,1.481445,798,1555)"><g transform="matrix(1,0,0,1,-6.884865,35.954315)"><path d="M192,584C190,586 190,586 188,588C187,589 187,589 185,590C181,594 177,595 177,595C176,599 180,596 190,594C198,593 198,593 198,593C204,594 199,599 198,600C198,602 199,603 199,604C200,611 198,615 197,616C195,618 193,620 193,620C190,621 190,621 186,622L185,623L183,623C183,623 182,622 182,622C181,621 186,621 189,618C197,612 193,602 193,601C192,600 184,602 184,602C178,603 188,618 168,621C167,621 165,621 163,621C163,621 159,620 156,613C155,610 154,612 151,610C151,607 153,609 165,600C166,599 166,599 167,598L168,598C169,597 169,597 170,596C171,595 171,595 172,595C173,594 174,593 175,593C175,592 175,592 176,592C177,591 177,591 178,591C179,590 179,590 180,589C182,588 181,588 183,587C184,587 184,586 186,586C191,582 192,583 192,584Z" style="fill:rgb(22,22,22);fill-opacity:1;"/></g></g><g transform="matrix(1.481445,0,0,1.481445,798,1555)"><g transform="matrix(1,0,0,1,-6.884865,35.954315)"><path d="M93,585C94,586 100,589 100,589C102,590 101,590 102,591C103,591 104,591 104,592C105,592 107,593 107,593C111,596 111,595 113,597C113,597 113,597 115,598C115,599 115,598 117,600C128,607 132,608 127,611C124,611 124,610 124,612C123,614 124,614 122,617C122,616 120,616 120,616C120,615 120,614 121,613C121,612 120,612 121,609C122,607 117,607 116,610C115,611 116,612 113,615C110,619 109,616 106,617L106,617L104,619C94,610 103,604 99,602C98,602 89,599 88,602C86,610 90,619 96,621C100,621 100,621 101,624C100,624 99,624 97,624C96,623 95,623 94,622C87,619 86,620 83,614C83,613 83,613 82,609C82,608 82,609 82,607C82,607 82,607 82,604L82,601C81,597 76,598 79,594C82,592 82,593 86,593C86,593 88,594 92,595C98,596 104,598 103,596C103,595 98,593 95,590C94,590 94,590 91,588C91,588 83,581 91,584C92,585 92,585 93,585Z" style="fill:rgb(21,21,21);fill-opacity:0.99;"/></g></g><g transform="matrix(1.481445,0,0,1.481445,798,1555)"><g transform="matrix(1,0,0,1,-6.884865,35.954315)"><path d="M127,611C127,611 127,611 127,611C126,612 124,615 125,618C124,618 124,618 121,620C121,620 118,623 115,622C113,622 114,623 111,623C106,624 106,624 101,624C100,621 100,621 96,621C90,619 86,610 88,602C89,599 98,602 99,602C103,604 94,610 104,619C105,620 114,625 122,617C124,614 123,614 124,612C124,610 124,611 127,611Z" style="fill:rgb(251,251,250);fill-opacity:0.98;"/></g></g><g transform="matrix(1.481445,0,0,1.481445,798,1555)"><g transform="matrix(1,0,0,1,-6.884865,35.954315)"><path d="M168,621C188,618 178,603 184,602C184,602 192,600 193,601C193,602 197,612 189,618C186,621 181,621 182,622C182,622 183,623 183,623C173,624 173,624 164,623C167,622 167,622 168,621Z" style="fill:rgb(252,252,251);fill-opacity:1;"/></g></g><g transform="matrix(1.481445,0,0,1.481445,798,1555)"><g transform="matrix(1,0,0,1,-6.884865,35.954315)"><path d="M122,617C114,625 105,620 104,619L106,617L106,617C109,616 110,619 113,615C116,612 115,611 116,610C117,607 122,607 121,609C120,612 121,612 121,613C120,614 120,615 120,616C120,616 122,616 122,617Z" style="fill:rgb(32,32,31);fill-opacity:0.99;"/></g></g><g transform="matrix(1.481445,0,0,1.481445,798,1555)"><g transform="matrix(1,0,0,1,-6.884865,35.954315)"><path d="M176,592C175,592 175,592 175,593C173,593 173,593 172,595C171,595 171,595 170,596C169,596 169,596 169,596C169,596 168,597 168,598L167,598C165,598 165,598 165,600C153,609 151,607 151,610C151,612 151,612 153,613C151,613 150,613 149,613C150,610 149,609 149,608C149,607 149,607 150,606C153,606 152,605 154,604C155,604 156,603 157,602C160,600 160,600 163,599C163,598 163,598 164,598C165,597 164,596 165,596C166,596 166,597 167,597C167,596 167,595 167,595C169,594 169,594 170,592C172,591 175,592 176,592Z" style="fill:rgb(237,236,235);fill-opacity:0.55;"/></g></g><g transform="matrix(1.481445,0,0,1.481445,798,1555)"><g transform="matrix(1,0,0,1,-6.884865,35.954315)"><path d="M190,594C190,594 189,593 190,593C190,593 190,593 191,593C193,592 193,591 195,591C200,593 200,591 201,591C201,591 201,592 201,593C202,593 202,592 203,592C203,592 202,595 203,597C203,599 202,599 201,602C201,604 201,606 201,607C201,608 201,608 201,609L201,611C201,613 201,613 197,616C198,615 200,611 199,604C199,602 199,602 198,600C199,599 204,594 198,593C198,593 198,593 190,594Z" style="fill:rgb(232,231,228);fill-opacity:0.73;"/></g></g><g transform="matrix(1.481445,0,0,1.481445,798,1555)"><g transform="matrix(1,0,0,1,-6.884865,35.954315)"><path d="M151,610C154,612 155,610 156,613C159,620 163,621 163,621C163,621 162,621 162,621C161,621 158,620 158,619C157,618 156,618 155,617C153,614 155,614 155,613C154,613 153,614 153,613C151,612 151,612 151,610Z" style="fill:rgb(212,212,209);fill-opacity:0.79;"/></g></g><g transform="matrix(1.481445,0,0,1.481445,798,1555)"><g transform="matrix(1,0,0,1,-6.884865,35.954315)"><path d="M82,609C83,613 83,613 83,614C86,620 87,619 94,622C93,622 92,622 92,622C88,622 88,621 85,619C83,619 82,616 82,615C81,614 82,610 82,609Z" style="fill:rgb(210,209,208);fill-opacity:0.82;"/></g></g><g transform="matrix(1.481445,0,0,1.481445,798,1555)"><g transform="matrix(1,0,0,1,-6.884865,35.954315)"><path d="M86,582L87,582C89,583 89,583 90,583C91,583 91,582 92,582C92,582 92,582 93,585C92,585 92,585 91,584C83,581 91,588 91,588C90,588 89,588 89,588C85,587 87,586 86,582Z" style="fill:rgb(202,202,198);fill-opacity:0.76;"/></g></g><g transform="matrix(1.481445,0,0,1.481445,798,1555)"><g transform="matrix(1,0,0,1,-6.884865,35.954315)"><path d="M160,614C163,614 162,616 166,616C166,617 166,618 166,618C162,618 162,618 160,615C160,615 160,614 160,614Z" style="fill:rgb(69,68,66);fill-opacity:1;"/></g></g><g transform="matrix(1.481445,0,0,1.481445,798,1555)"><g transform="matrix(1,0,0,1,-6.884865,35.954315)"><path d="M166,616C168,615 168,615 170,617L171,617C170,617 170,618 169,619C169,619 167,618 166,618C166,618 166,617 166,616Z" style="fill:rgb(47,46,45);fill-opacity:1;"/></g></g><g transform="matrix(1.481445,0,0,1.481445,798,1555)"><g transform="matrix(1,0,0,1,-6.884865,35.954315)"><path d="M193,620L194,620L195,620C195,621 195,621 195,622C194,622 193,621 192,621C190,622 191,622 188,622L186,622C190,621 190,621 193,620Z" style="fill:rgb(208,207,204);fill-opacity:0.71;"/></g></g><g transform="matrix(1.481445,0,0,1.481445,798,1555)"><g transform="matrix(1,0,0,1,-6.884865,35.954315)"><path d="M163,621C165,621 167,621 168,621C167,622 167,622 164,623C164,622 163,622 162,621C162,621 163,621 163,621Z" style="fill:rgb(212,211,209);fill-opacity:0.85;"/></g></g><g transform="matrix(1.481445,0,0,1.481445,798,1555)"><g transform="matrix(1,0,0,1,-6.884865,35.954315)"><path d="M89,588C89,588 90,588 91,588C94,590 94,590 95,590C94,590 94,591 94,591C93,591 92,591 92,590C90,589 90,589 89,588Z" style="fill:rgb(218,217,216);fill-opacity:0.78;"/></g></g><g transform="matrix(1.481445,0,0,1.481445,798,1555)"><g transform="matrix(1,0,0,1,-6.884865,35.954315)"><path d="M88,593C90,594 91,594 92,595C88,594 86,593 86,593C86,593 87,593 88,593Z" style="fill:rgb(177,177,176);fill-opacity:0.8;"/></g></g><g transform="matrix(1.481445,0,0,1.481445,798,1555)"><g transform="matrix(1,0,0,1,-6.884865,35.954315)"><path d="M99,552C98,551 97,551 98,550C99,549 102,551 99,552Z" style="fill:none;"/></g></g><g transform="matrix(1.481445,0,0,1.481445,798,1555)"><g transform="matrix(1,0,0,1,-6.884865,35.954315)"><path d="M115,563C112,562 115,560 116,561C117,562 116,562 115,563Z" style="fill:none;"/></g></g><g transform="matrix(1.481445,0,0,1.481445,798,1555)"><g transform="matrix(1,0,0,1,-6.884865,35.954315)"><path d="M142,598C141,597 140,597 141,596C142,595 145,597 142,598Z" style="fill:none;"/></g></g><g transform="matrix(1.481445,0,0,1.481445,798,1555)"><g transform="matrix(1,0,0,1,-6.884865,35.954315)"><path d="M209,623C210,623 210,623 210,624C210,626 206,625 209,623Z" style="fill:none;"/></g></g><g transform="matrix(1.481445,0,0,1.481445,798,1555)"><g transform="matrix(1,0,0,1,-6.884865,35.954315)"><path d="M145,645C146,644 146,643 147,644C148,645 146,648 145,645Z" style="fill:none;"/></g></g><g transform="matrix(1.481445,0,0,1.481445,798,1555)"><g transform="matrix(1,0,0,1,-6.884865,35.954315)"><path d="M169,644C168,643 167,643 168,642C169,641 172,643 169,644Z" style="fill:none;"/></g></g><g transform="matrix(1.481445,0,0,1.481445,798,1555)"><g transform="matrix(1,0,0,1,-6.884865,35.954315)"><path d="M115,579C114,578 113,578 114,577C115,576 118,578 115,579Z" style="fill:none;"/></g></g><g transform="matrix(1.481445,0,0,1.481445,798,1555)"><g transform="matrix(1,0,0,1,-6.884865,35.954315)"><path d="M116,589C115,592 113,589 114,588C115,587 115,588 116,589Z" style="fill:none;"/></g></g><g transform="matrix(1.481445,0,0,1.481445,798,1555)"><g transform="matrix(1,0,0,1,-6.884865,35.954315)"><path d="M83,568C83,567 84,566 85,567C86,568 85,568 84,569C83,569 83,569 83,568Z" style="fill:none;"/></g></g><g transform="matrix(1.481445,0,0,1.481445,798,1555)"><g transform="matrix(1,0,0,1,-6.884865,35.954315)"><path d="M118,639C117,642 115,639 116,638C117,637 117,638 118,639Z" style="fill:none;"/></g></g><g transform="matrix(1.481445,0,0,1.481445,798,1555)"><g transform="matrix(1,0,0,1,-6.884865,35.954315)"><path d="M118,644C116,647 115,643 117,643C118,643 118,643 118,644Z" style="fill:none;"/></g></g><g transform="matrix(1.481445,0,0,1.481445,798,1555)"><g transform="matrix(1,0,0,1,-6.884865,35.954315)"><path d="M92,622C92,622 93,622 94,622C95,623 96,623 97,624C94,623 94,624 92,622Z" style="fill:rgb(205,204,201);fill-opacity:0.66;"/></g></g><g transform="matrix(1.481445,0,0,1.481445,798,1555)"><g transform="matrix(1,0,0,1,-6.884865,35.954315)"><path d="M100,659C98,662 97,658 99,658C100,658 100,658 100,659Z" style="fill:none;"/></g></g><g transform="matrix(1.481445,0,0,1.481445,798,1555)"><g transform="matrix(1,0,0,1,-6.884865,35.954315)"><path d="M199,585C196,587 197,585 197,584C198,583 199,584 199,585Z" style="fill:none;"/></g></g><g transform="matrix(1.481445,0,0,1.481445,798,1555)"><g transform="matrix(1,0,0,1,-6.884865,35.954315)"><path d="M155,602C156,602 157,602 157,602C156,603 155,604 154,604C154,604 154,604 155,602Z" style="fill:rgb(171,170,165);fill-opacity:0.1;"/></g></g><g transform="matrix(1.481445,0,0,1.481445,798,1555)"><g transform="matrix(1,0,0,1,-6.884865,35.954315)"><path d="M188,588L188,589C188,589 189,590 187,590C186,590 186,590 185,590C187,589 187,589 188,588Z" style="fill:rgb(182,181,180);fill-opacity:0.87;"/></g></g><g transform="matrix(1.481445,0,0,1.481445,798,1555)"><g transform="matrix(1,0,0,1,-6.884865,35.954315)"><path d="M198,619L197,619C197,620 196,620 195,620L194,620C196,619 196,619 198,619Z" style="fill:rgb(195,194,189);fill-opacity:0.24;"/></g></g><g transform="matrix(1.481445,0,0,1.481445,798,1555)"><g transform="matrix(1,0,0,1,-6.884865,35.954315)"><path d="M77,595C77,597 77,597 77,598C77,598 75,596 75,596C75,596 75,596 77,595Z" style="fill:rgb(156,150,144);fill-opacity:0.08;"/></g></g><g transform="matrix(1.481445,0,0,1.481445,798,1555)"><g transform="matrix(1,0,0,1,-6.884865,35.954315)"><path d="M101,637C101,637 101,636 101,636C101,636 102,638 102,639C101,638 101,638 101,637Z" style="fill:none;"/></g></g><g transform="matrix(1.481445,0,0,1.481445,798,1555)"><g transform="matrix(1,0,0,1,-6.884865,35.954315)"><path d="M198,600C199,602 199,602 199,604C199,603 198,602 198,600Z" style="fill:rgb(157,156,154);fill-opacity:0.94;"/></g></g><g transform="matrix(1.481445,0,0,1.481445,798,1555)"><g transform="matrix(1,0,0,1,-6.884865,35.954315)"><path d="M175,593C174,593 173,594 172,595C173,593 173,593 175,593Z" style="fill:rgb(156,156,154);fill-opacity:0.83;"/></g></g><g transform="matrix(1.481445,0,0,1.481445,798,1555)"><g transform="matrix(1,0,0,1,-6.884865,35.954315)"><path d="M185,623L186,622L188,622C187,622 188,623 185,623C185,623 185,623 185,623Z" style="fill:rgb(195,193,189);fill-opacity:0.61;"/></g></g><g transform="matrix(1.481445,0,0,1.481445,798,1555)"><g transform="matrix(1,0,0,1,-6.884865,35.954315)"><path d="M180,589C179,590 179,590 178,591C178,590 178,590 178,590C179,588 180,589 180,589Z" style="fill:rgb(176,175,173);fill-opacity:0.85;"/></g></g><g transform="matrix(1.481445,0,0,1.481445,798,1555)"><g transform="matrix(1,0,0,1,-6.884865,35.954315)"><path d="M167,598C166,599 166,599 165,600C165,598 165,598 167,598Z" style="fill:rgb(170,169,169);fill-opacity:0.81;"/></g></g><g transform="matrix(1.481445,0,0,1.481445,798,1555)"><g transform="matrix(1,0,0,1,-6.884865,35.954315)"><path d="M87,582C89,582 89,582 90,583C89,583 89,583 87,582Z" style="fill:rgb(217,215,210);fill-opacity:0.46;"/></g></g><g transform="matrix(1.481445,0,0,1.481445,798,1555)"><g transform="matrix(1,0,0,1,-6.884865,35.954315)"><path d="M201,607C202,608 202,608 202,608C202,609 202,609 201,609C202,608 202,608 201,607Z" style="fill:rgb(174,171,161);fill-opacity:0.05;"/></g></g><g transform="matrix(1.481445,0,0,1.481445,798,1555)"><g transform="matrix(1,0,0,1,-6.884865,35.954315)"><path d="M186,586C184,586 184,587 183,587C183,587 183,586 184,586C184,586 184,586 186,586Z" style="fill:rgb(146,146,145);fill-opacity:0.85;"/></g></g><g transform="matrix(1.481445,0,0,1.481445,798,1555)"><g transform="matrix(1,0,0,1,-6.884865,35.954315)"><path d="M160,614C160,614 160,615 160,615C159,614 157,614 159,614C159,613 159,614 160,614Z" style="fill:rgb(54,52,52);fill-opacity:0.99;"/></g></g><g transform="matrix(1.481445,0,0,1.481445,798,1555)"><g transform="matrix(1,0,0,1,-6.884865,35.954315)"><path d="M201,607C202,608 202,608 201,609C201,608 201,608 201,607Z" style="fill:rgb(206,204,196);fill-opacity:0.17;"/></g></g><g transform="matrix(1.481445,0,0,1.481445,798,1555)"><g transform="matrix(1,0,0,1,-6.884865,35.954315)"><path d="M170,596C169,597 169,597 168,598C168,597 169,596 169,596C169,596 169,596 170,596Z" style="fill:rgb(166,165,163);fill-opacity:0.86;"/></g></g><g transform="matrix(1.481445,0,0,1.481445,798,1555)"><g transform="matrix(1,0,0,1,-6.884865,35.954315)"><path d="M77,595C77,597 77,597 77,598C77,597 77,597 77,595Z" style="fill:rgb(197,192,186);fill-opacity:0.34;"/></g></g><g transform="matrix(1.481445,0,0,1.481445,798,1555)"><g transform="matrix(1,0,0,1,-6.884865,35.954315)"><path d="M98,585C99,586 99,586 99,586L100,587C99,586 99,586 98,585Z" style="fill:rgb(146,144,140);fill-opacity:0.19;"/></g></g><g transform="matrix(1.481445,0,0,1.481445,798,1555)"><g transform="matrix(1,0,0,1,-6.884865,35.954315)"><path d="M82,601L82,604C82,603 82,603 82,601Z" style="fill:rgb(131,131,130);fill-opacity:0.95;"/></g></g><g transform="matrix(1.481445,0,0,1.481445,798,1555)"><g transform="matrix(1,0,0,1,-6.884865,35.954315)"><path d="M172,616C172,617 171,617 171,617L170,617C171,617 171,617 171,617C172,616 172,616 172,616Z" style="fill:rgb(37,38,36);fill-opacity:1;"/></g></g></g></svg>