<?xml version="1.0" encoding="UTF-8" standalone="no"?><!DOCTYPE svg PUBLIC "-//W3C//DTD SVG 1.1//EN" "http://www.w3.org/Graphics/SVG/1.1/DTD/svg11.dtd"><svg width="255px" height="59px" version="1.1" xmlns="http://www.w3.org/2000/svg" xmlns:xlink="http://www.w3.org/1999/xlink" xml:space="preserve" xmlns:serif="http://www.serif.com/" style="fill-rule:evenodd;clip-rule:evenodd;stroke-linejoin:round;stroke-miterlimit:2;"><g transform="matrix(1,0,0,1,-2105.379273,-2611.614165)"><g transform="matrix(1.481445,0,0,1.481445,953.893836,1746.634482)"><path d="M940,587C941,587 941,587 941,587C942,587 942,587 943,587C947,587 948,588 946,591C942,592 943,594 944,598C946,612 939,616 925,618C916,619 916,620 901,619L900,619C898,619 898,619 897,619C893,618 893,618 890,617C891,617 891,616 892,616C893,615 895,618 912,617C944,616 935,596 934,596C933,595 919,597 919,597C915,598 920,602 914,610C913,610 908,615 901,614C900,613 896,612 893,606C892,604 891,604 889,605C879,607 879,607 878,606C877,604 877,604 879,603C879,603 880,602 881,602C884,601 884,601 886,600C887,600 888,600 889,599C893,598 893,598 896,597C897,597 898,597 899,596L903,595C907,594 907,594 910,593C913,593 913,593 914,593C915,592 914,593 915,592C917,592 917,592 918,592C919,591 919,592 920,591C922,591 923,591 924,590C926,590 928,590 929,589C932,589 932,589 933,589C934,588 934,589 935,588C937,588 939,588 940,587Z" style="fill:rgb(25,25,25);fill-opacity:0.99;"/></g><g transform="matrix(1.481445,0,0,1.481445,953.893836,1746.634482)"><path d="M787,587C788,588 789,588 791,588C792,588 793,588 794,589C801,590 801,590 803,590C804,591 803,590 804,591C805,591 805,591 811,592C812,593 814,593 816,593C816,593 816,593 820,595C821,595 821,595 821,595C822,595 822,595 824,595L827,596C828,597 828,596 828,597C829,597 829,597 831,597L834,599C835,599 837,599 838,599C840,600 842,601 843,601C843,601 843,601 845,602C847,603 847,603 848,605L848,605L848,606C840,609 834,601 832,604C829,612 829,612 822,615C820,615 812,615 809,607C807,601 811,597 804,596C797,594 791,591 791,600C789,617 809,617 812,617C827,618 830,616 831,617C832,617 833,618 833,618C831,619 829,619 828,620C825,620 823,620 821,620C815,620 808,620 802,619C800,618 797,618 797,617C789,614 787,614 784,608C783,608 783,608 783,607C783,601 783,601 784,595C784,591 780,591 780,589C780,586 781,587 787,587Z" style="fill:rgb(24,24,24);fill-opacity:1;"/></g><g transform="matrix(1.481445,0,0,1.481445,953.893836,1746.634482)"><path d="M883,599C884,599 885,600 886,600C884,601 884,601 881,602C879,601 879,601 878,601C878,602 878,603 878,603C877,604 877,603 877,605C877,606 877,605 878,606C879,607 879,607 889,605C891,604 892,604 893,606C896,612 900,613 901,614C908,615 913,610 914,610C920,602 915,598 919,597C919,597 933,595 934,596C935,596 944,616 912,617C895,618 893,615 892,616C891,616 891,617 890,617C884,613 883,613 880,609C877,607 877,608 876,608C876,608 876,608 875,606C875,605 875,605 874,603C877,600 878,601 883,599Z" style="fill:rgb(251,243,226);fill-opacity:0.98;"/></g><g transform="matrix(1.481445,0,0,1.481445,953.893836,1746.634482)"><path d="M848,606C848,607 850,608 846,611C845,611 846,611 844,613C838,615 839,616 833,618C833,618 832,617 831,617C830,616 827,618 812,617C809,617 789,617 791,600C791,591 797,594 804,596C811,597 807,601 809,607C812,615 820,615 822,615C829,612 829,612 832,604C834,601 840,609 848,606Z" style="fill:rgb(251,244,230);fill-opacity:0.99;"/></g><g transform="matrix(1.481445,0,0,1.481445,953.893836,1746.634482)"><path d="M945,595C945,595 946,596 946,597C946,602 945,602 946,607C946,609 945,609 945,611C944,615 938,616 934,620C933,620 932,619 931,619C930,619 929,619 927,619C927,619 926,619 925,618C939,616 946,612 944,598C944,597 945,595 945,595Z" style="fill:rgb(235,234,230);fill-opacity:0.64;"/></g><g transform="matrix(1.481445,0,0,1.481445,953.893836,1746.634482)"><path d="M942,584C944,585 944,585 945,585C947,585 947,585 949,586C948,589 949,590 949,591C949,591 948,593 945,595C945,593 945,593 946,591C948,588 947,587 943,587C942,587 942,587 941,587C941,587 941,587 940,587C939,587 939,586 938,586C938,586 938,586 942,584Z" style="fill:rgb(230,228,225);fill-opacity:0.62;"/></g><g transform="matrix(1.481445,0,0,1.481445,953.893836,1746.634482)"><path d="M783,607C783,608 783,608 784,608C787,614 789,614 797,617C794,619 794,617 790,618C789,617 789,617 789,617C789,617 789,616 788,616C788,615 788,616 787,616C787,615 787,615 787,614C787,614 786,614 784,612C782,610 782,610 783,607Z" style="fill:rgb(216,216,213);fill-opacity:0.81;"/></g><g transform="matrix(1.481445,0,0,1.481445,953.893836,1746.634482)"><path d="M925,618C926,619 927,619 927,619C927,619 927,620 926,620C925,620 924,620 922,620C906,621 902,620 901,619C916,620 916,619 925,618Z" style="fill:rgb(208,207,204);fill-opacity:0.72;"/></g><g transform="matrix(1.481445,0,0,1.481445,953.893836,1746.634482)"><path d="M798,587L799,587C799,587 800,587 807,589C805,590 805,590 803,590C801,590 801,590 794,589C795,588 795,588 795,588C796,588 796,588 798,587Z" style="fill:rgb(216,214,209);fill-opacity:0.51;"/></g><g transform="matrix(1.481445,0,0,1.481445,953.893836,1746.634482)"><path d="M927,588C927,588 927,588 929,589C928,590 926,590 924,590C923,590 924,590 923,590C920,589 921,591 920,591C918,590 918,591 917,590C919,589 919,589 921,588C922,588 922,588 927,588Z" style="fill:rgb(217,215,210);fill-opacity:0.52;"/></g><g transform="matrix(1.481445,0,0,1.481445,953.893836,1746.634482)"><path d="M905,592C905,592 908,593 910,593C907,594 907,594 903,595C902,595 901,594 900,594C901,594 901,594 901,593C902,593 902,593 903,593C903,593 903,593 903,592C903,592 903,592 905,592Z" style="fill:rgb(213,211,207);fill-opacity:0.54;"/></g><g transform="matrix(1.481445,0,0,1.481445,953.893836,1746.634482)"><path d="M938,586C939,586 939,587 940,587C939,588 937,588 935,588C933,588 933,588 931,587C934,586 934,586 938,586Z" style="fill:rgb(216,214,210);fill-opacity:0.54;"/></g><g transform="matrix(1.481445,0,0,1.481445,953.893836,1746.634482)"><path d="M802,619C808,620 815,620 821,620L821,620C820,620 805,621 803,620C802,620 803,620 802,619Z" style="fill:rgb(205,204,202);fill-opacity:0.74;"/></g><g transform="matrix(1.481445,0,0,1.481445,953.893836,1746.634482)"><path d="M835,595C836,596 836,596 838,596C838,597 839,597 839,598C839,598 838,597 837,597C835,598 835,598 834,599L831,597C831,597 831,597 835,595Z" style="fill:rgb(201,198,192);fill-opacity:0.4;"/></g><g transform="matrix(1.481445,0,0,1.481445,953.893836,1746.634482)"><path d="M931,587C933,588 933,588 935,588C934,589 934,588 933,589C932,589 932,589 929,589C927,588 927,588 927,588C927,588 928,587 931,587Z" style="fill:rgb(200,198,194);fill-opacity:0.56;"/></g><g transform="matrix(1.481445,0,0,1.481445,953.893836,1746.634482)"><path d="M831,594C832,595 833,595 835,595C831,597 831,597 831,597C829,597 829,597 828,597C828,596 828,597 827,596C828,596 829,595 831,594Z" style="fill:rgb(205,202,197);fill-opacity:0.51;"/></g><g transform="matrix(1.481445,0,0,1.481445,953.893836,1746.634482)"><path d="M946,597C947,601 948,604 946,607C945,602 946,602 946,597Z" style="fill:rgb(188,187,182);fill-opacity:0.18;"/></g><g transform="matrix(1.481445,0,0,1.481445,953.893836,1746.634482)"><path d="M946,591C945,593 945,593 945,595C945,595 944,597 944,598C943,594 942,592 946,591Z" style="fill:rgb(201,202,199);fill-opacity:0.85;"/></g><g transform="matrix(1.481445,0,0,1.481445,953.893836,1746.634482)"><path d="M827,594L828,594C829,594 830,594 831,594C829,595 828,596 827,596L824,595C825,595 826,595 827,594Z" style="fill:rgb(209,207,202);fill-opacity:0.55;"/></g><g transform="matrix(1.481445,0,0,1.481445,953.893836,1746.634482)"><path d="M826,594L827,594C826,595 825,595 824,595C822,595 822,595 821,595C821,595 821,595 820,595C822,594 822,592 826,594Z" style="fill:rgb(211,209,202);fill-opacity:0.58;"/></g><g transform="matrix(1.481445,0,0,1.481445,953.893836,1746.634482)"><path d="M839,598L840,598L841,598C839,598 839,598 838,599C837,599 835,599 834,599C835,598 835,598 837,597C838,597 839,598 839,598Z" style="fill:rgb(210,207,201);fill-opacity:0.54;"/></g><g transform="matrix(1.481445,0,0,1.481445,953.893836,1746.634482)"><path d="M893,595C893,595 894,595 895,595C897,596 897,595 899,596C898,597 897,597 896,597C894,596 893,596 893,595Z" style="fill:rgb(185,182,177);fill-opacity:0.53;"/></g><g transform="matrix(1.481445,0,0,1.481445,953.893836,1746.634482)"><path d="M781,600C783,603 782,603 781,605L780,605C780,603 780,602 780,600L781,600Z" style="fill:rgb(200,197,193);fill-opacity:0.48;"/></g><g transform="matrix(1.481445,0,0,1.481445,953.893836,1746.634482)"><path d="M845,602L846,602C847,602 847,601 848,601C848,602 848,602 848,603C849,604 849,603 849,604C849,604 848,604 848,605C847,603 847,603 845,602Z" style="fill:rgb(188,187,184);fill-opacity:0.81;"/></g><g transform="matrix(1.481445,0,0,1.481445,953.893836,1746.634482)"><path d="M923,586C922,585 921,584 923,584C923,584 926,584 923,586Z" style="fill:none;"/></g><g transform="matrix(1.481445,0,0,1.481445,953.893836,1746.634482)"><path d="M811,592C813,592 813,592 813,592C816,591 815,593 816,593C814,593 812,593 811,592Z" style="fill:rgb(168,167,164);fill-opacity:0.84;"/></g><g transform="matrix(1.481445,0,0,1.481445,953.893836,1746.634482)"><path d="M821,620C823,620 825,620 828,620C825,620 823,620 821,620L821,620Z" style="fill:rgb(206,205,202);fill-opacity:0.63;"/></g><g transform="matrix(1.481445,0,0,1.481445,953.893836,1746.634482)"><path d="M843,601C845,601 845,601 845,601C846,601 846,602 846,602L845,602C843,601 843,601 843,601Z" style="fill:rgb(187,186,185);fill-opacity:0.85;"/></g><g transform="matrix(1.481445,0,0,1.481445,953.893836,1746.634482)"><path d="M924,590C923,591 922,591 920,591C921,591 920,589 923,590C924,590 923,590 924,590Z" style="fill:rgb(168,168,165);fill-opacity:0.84;"/></g><g transform="matrix(1.481445,0,0,1.481445,953.893836,1746.634482)"><path d="M780,584C783,584 782,584 785,584C784,585 784,585 784,585C781,586 781,584 780,584Z" style="fill:rgb(169,165,158);fill-opacity:0.09;"/></g><g transform="matrix(1.481445,0,0,1.481445,953.893836,1746.634482)"><path d="M787,587C787,587 788,587 788,587C791,586 790,588 791,588C789,588 788,588 787,587Z" style="fill:rgb(158,157,155);fill-opacity:0.84;"/></g><g transform="matrix(1.481445,0,0,1.481445,953.893836,1746.634482)"><path d="M843,621C843,622 843,622 843,623C842,624 842,622 841,622C842,621 842,621 843,621Z" style="fill:none;"/></g><g transform="matrix(1.481445,0,0,1.481445,953.893836,1746.634482)"><path d="M878,603L879,603C877,604 877,604 878,606C877,605 877,606 877,605C877,603 877,604 878,603Z" style="fill:rgb(140,140,139);fill-opacity:0.93;"/></g><g transform="matrix(1.481445,0,0,1.481445,953.893836,1746.634482)"><path d="M881,602C880,602 879,603 879,603L878,603C878,603 878,602 878,601C879,601 879,601 881,602Z" style="fill:rgb(174,175,171);fill-opacity:0.85;"/></g><g transform="matrix(1.481445,0,0,1.481445,953.893836,1746.634482)"><path d="M874,603C875,605 875,605 875,606C874,605 874,605 874,603Z" style="fill:rgb(173,167,158);fill-opacity:0.02;"/></g><g transform="matrix(1.481445,0,0,1.481445,953.893836,1746.634482)"><path d="M942,584C944,584 944,584 945,585C944,585 944,585 942,584Z" style="fill:rgb(172,169,159);fill-opacity:0.08;"/></g><g transform="matrix(1.481445,0,0,1.481445,953.893836,1746.634482)"><path d="M778,587C778,587 778,588 778,588L777,590C777,589 778,588 778,587Z" style="fill:rgb(146,145,141);fill-opacity:0.23;"/></g><g transform="matrix(1.481445,0,0,1.481445,953.893836,1746.634482)"><path d="M897,619C898,619 898,619 900,619C899,619 898,619 897,619Z" style="fill:rgb(219,218,212);fill-opacity:0.64;"/></g></g></svg>