<?xml version="1.0" encoding="UTF-8" standalone="no"?><!DOCTYPE svg PUBLIC "-//W3C//DTD SVG 1.1//EN" "http://www.w3.org/Graphics/SVG/1.1/DTD/svg11.dtd"><svg width="214px" height="94px" version="1.1" xmlns="http://www.w3.org/2000/svg" xmlns:xlink="http://www.w3.org/1999/xlink" xml:space="preserve" xmlns:serif="http://www.serif.com/" style="fill-rule:evenodd;clip-rule:evenodd;stroke-linejoin:round;stroke-miterlimit:2;"><g transform="matrix(1,0,0,1,-1571.083964,-2444.455122)"><g transform="matrix(1.481445,0,0,1.481445,953.893836,1746.634482)"><path d="M511,478C514,478 514,478 516,479C514,480 514,480 513,481C512,481 512,480 511,482C511,482 511,482 511,483C510,483 508,485 507,487C498,496 502,508 502,508C504,513 504,505 504,504C503,492 514,485 514,485C538,469 565,493 551,516C549,517 549,517 549,519C547,519 534,524 527,524C520,524 521,523 517,522C516,522 514,523 514,523C514,523 515,523 515,523C512,523 512,523 510,520C510,519 509,516 509,515C508,515 508,515 508,514C507,514 507,514 506,512C506,512 506,512 505,511C504,511 504,511 503,511C502,511 502,511 501,511L501,510C499,509 499,509 499,509C499,505 500,505 498,501C499,497 499,497 499,497C499,497 499,497 501,491C501,491 502,492 502,489C502,489 502,488 503,488C503,487 503,487 503,486C504,486 504,486 505,486C508,482 509,482 511,478Z" style="fill:rgb(249,249,248);fill-opacity:0.96;"/></g><g transform="matrix(1.481445,0,0,1.481445,953.893836,1746.634482)"><path d="M476,504C476,506 476,506 476,506C477,507 476,507 476,507C475,508 475,508 474,508C473,508 473,507 473,508C472,508 473,508 473,509C473,510 473,510 473,513C472,513 471,515 471,515C470,516 470,515 470,517C470,517 469,517 469,517C469,518 469,518 468,518C466,518 466,519 465,521C464,521 464,521 464,522C463,522 462,523 460,523C459,523 459,523 458,524C449,526 449,524 447,523C445,523 446,524 444,524C443,523 443,523 430,519L431,518C407,483 464,464 474,497C474,501 473,506 475,505C476,505 476,505 476,504Z" style="fill:rgb(249,250,249);fill-opacity:0.98;"/></g><g transform="matrix(1.481445,0,0,1.481445,953.893836,1746.634482)"><path d="M510,515C494,488 535,471 545,496C547,502 547,520 528,523C522,523 520,522 517,521C515,520 515,520 514,519C514,519 513,518 512,517C511,516 510,515 510,515Z" style="fill:rgb(21,21,21);fill-opacity:1;"/></g><g transform="matrix(1.481445,0,0,1.481445,953.893836,1746.634482)"><path d="M454,522C452,523 452,523 451,523C427,521 428,491 443,485C464,477 479,502 468,516C462,522 458,521 454,522Z" style="fill:rgb(20,20,20);fill-opacity:1;"/></g><g transform="matrix(1.481445,0,0,1.481445,953.893836,1746.634482)"><path d="M441,476C442,476 450,473 459,476C465,478 465,478 469,483C472,486 474,489 474,490C476,494 476,494 477,498L477,501C477,502 476,503 476,504C476,505 476,505 475,505C473,506 474,501 474,497C464,464 407,483 431,518C430,517 429,517 429,517C425,515 425,515 425,515C416,507 419,500 419,497C419,493 422,490 422,489C422,489 423,488 423,488C423,488 424,487 425,486C429,481 434,478 435,478C435,478 435,478 441,476Z" style="fill:rgb(15,15,15);fill-opacity:0.99;"/></g><g transform="matrix(1.481445,0,0,1.481445,953.893836,1746.634482)"><path d="M538,476C539,476 540,477 541,477C545,479 551,480 558,490C558,491 558,491 559,492C560,495 560,495 561,498C562,511 558,510 556,514C556,516 553,516 553,517C552,517 552,517 551,517C550,517 551,516 551,516C565,493 538,469 514,485C514,485 503,492 504,504C504,505 504,513 502,508C502,508 498,496 507,487C508,485 510,483 511,483C512,482 513,481 513,481C514,480 514,480 516,479C519,477 519,477 523,476C531,476 531,476 538,476Z" style="fill:rgb(14,15,15);fill-opacity:0.99;"/></g><g transform="matrix(1.481445,0,0,1.481445,953.893836,1746.634482)"><path d="M516,494C516,494 518,484 526,489C535,495 519,509 516,494Z" style="fill:rgb(252,252,251);fill-opacity:1;"/></g><g transform="matrix(1.481445,0,0,1.481445,953.893836,1746.634482)"><path d="M441,493C442,490 442,489 445,488C446,488 449,487 451,489C460,496 443,507 441,493Z" style="fill:rgb(253,253,251);fill-opacity:1;"/></g><g transform="matrix(1.481445,0,0,1.481445,953.893836,1746.634482)"><path d="M454,515C454,516 454,517 455,518C453,518 448,519 445,516C436,508 444,505 447,508C451,511 452,511 454,515Z" style="fill:rgb(85,83,83);fill-opacity:1;"/></g><g transform="matrix(1.481445,0,0,1.481445,953.893836,1746.634482)"><path d="M430,477C433,477 433,477 435,478C434,478 429,481 425,486C423,487 423,487 423,487C423,487 423,487 423,488C423,488 422,489 422,489C422,490 419,493 419,497C419,500 416,507 425,515C422,514 422,515 420,513C419,512 419,512 419,511C418,511 418,511 417,509C418,507 418,507 417,503C417,502 417,502 417,501C418,494 417,494 420,488C421,487 421,488 421,486C421,486 423,484 424,484C424,483 425,484 426,481C427,480 427,480 427,480C428,480 427,480 428,480C429,479 429,479 429,479C430,479 429,479 429,478C430,478 430,478 430,477Z" style="fill:rgb(231,231,230);fill-opacity:0.67;"/></g><g transform="matrix(1.481445,0,0,1.481445,953.893836,1746.634482)"><path d="M519,506C522,513 525,512 524,519C514,518 514,511 514,511C514,510 516,509 517,508C517,508 517,508 518,508L519,506Z" style="fill:rgb(96,94,93);fill-opacity:1;"/></g><g transform="matrix(1.481445,0,0,1.481445,953.893836,1746.634482)"><path d="M523,474C524,474 524,474 525,474C526,474 527,474 528,474L528,474C534,475 534,475 539,474L540,474C542,475 541,475 542,475C542,475 542,475 542,475C548,477 548,476 548,477C551,479 551,479 554,481C557,488 558,487 558,488C559,488 558,488 558,489L558,490C551,480 545,479 541,477C541,477 541,476 538,476C531,476 531,476 523,476C523,476 519,475 518,475C518,475 520,475 523,474Z" style="fill:rgb(227,226,226);fill-opacity:0.65;"/></g><g transform="matrix(1.481445,0,0,1.481445,953.893836,1746.634482)"><path d="M446,473C446,473 449,474 454,473C454,473 454,473 455,473C457,474 457,474 460,474C463,475 465,477 466,477C468,480 468,480 469,483C465,478 465,478 459,476C450,473 442,476 441,476C438,476 438,476 436,475L437,475C438,474 439,474 441,474C441,474 441,474 442,474C443,472 443,473 446,473Z" style="fill:rgb(230,228,228);fill-opacity:0.55;"/></g><g transform="matrix(1.481445,0,0,1.481445,953.893836,1746.634482)"><path d="M532,493C534,483 542,497 536,500C529,503 532,497 532,493Z" style="fill:rgb(67,65,65);fill-opacity:1;"/></g><g transform="matrix(1.481445,0,0,1.481445,953.893836,1746.634482)"><path d="M463,497L463,500C456,501 459,497 457,493C455,488 464,488 463,497Z" style="fill:rgb(75,73,72);fill-opacity:1;"/></g><g transform="matrix(1.481445,0,0,1.481445,953.893836,1746.634482)"><path d="M538,512C538,509 537,509 535,508C532,504 543,501 542,508C542,508 540,512 540,513C539,513 539,513 538,513C538,512 539,512 538,512Z" style="fill:rgb(84,82,81);fill-opacity:1;"/></g><g transform="matrix(1.481445,0,0,1.481445,953.893836,1746.634482)"><path d="M463,515C457,522 453,511 458,510C463,510 463,514 463,515Z" style="fill:rgb(253,251,245);fill-opacity:1;"/></g><g transform="matrix(1.481445,0,0,1.481445,953.893836,1746.634482)"><path d="M464,509C456,505 465,501 466,505C467,507 465,512 465,511C464,510 464,510 464,509Z" style="fill:rgb(77,76,74);fill-opacity:0.99;"/></g><g transform="matrix(1.481445,0,0,1.481445,953.893836,1746.634482)"><path d="M530,514C530,513 532,508 535,511C539,513 533,521 530,514Z" style="fill:rgb(252,251,249);fill-opacity:1;"/></g><g transform="matrix(1.481445,0,0,1.481445,953.893836,1746.634482)"><path d="M478,493C479,494 479,494 480,495C479,496 478,497 479,503L478,505C478,505 477,502 477,501L477,498C477,498 477,498 478,493Z" style="fill:rgb(210,209,206);fill-opacity:0.44;"/></g><g transform="matrix(1.481445,0,0,1.481445,953.893836,1746.634482)"><path d="M518,475C519,475 523,476 523,476C519,477 519,477 516,479C514,478 514,478 511,478C513,478 512,478 513,478C516,477 515,477 518,475Z" style="fill:rgb(197,196,194);fill-opacity:0.5;"/></g><g transform="matrix(1.481445,0,0,1.481445,953.893836,1746.634482)"><path d="M419,511C419,512 419,512 420,513C422,515 422,514 425,515C425,515 425,515 429,517C426,517 426,517 426,517C425,517 425,517 425,516C424,516 424,516 422,516C420,514 421,514 418,513L419,511Z" style="fill:rgb(196,196,195);fill-opacity:0.56;"/></g><g transform="matrix(1.481445,0,0,1.481445,953.893836,1746.634482)"><path d="M519,506L518,508C517,508 517,508 517,508C516,507 516,507 515,507C514,506 516,501 519,506Z" style="fill:rgb(53,52,51);fill-opacity:1;"/></g><g transform="matrix(1.481445,0,0,1.481445,953.893836,1746.634482)"><path d="M514,502C511,498 514,499 514,499C516,500 516,501 514,502Z" style="fill:rgb(59,59,58);fill-opacity:1;"/></g><g transform="matrix(1.481445,0,0,1.481445,953.893836,1746.634482)"><path d="M536,474C537,474 538,474 539,474C534,475 534,475 528,474C533,474 532,474 536,474Z" style="fill:rgb(191,189,186);fill-opacity:0.36;"/></g><g transform="matrix(1.481445,0,0,1.481445,953.893836,1746.634482)"><path d="M463,497C464,498 464,498 464,498C465,498 465,498 465,498C466,498 468,501 463,500L463,497Z" style="fill:rgb(43,42,42);fill-opacity:1;"/></g><g transform="matrix(1.481445,0,0,1.481445,953.893836,1746.634482)"><path d="M477,501C477,502 478,505 478,505L478,506C477,506 477,507 476,507C476,507 477,507 476,506C476,506 476,506 476,504C476,503 477,502 477,501Z" style="fill:rgb(198,197,195);fill-opacity:0.64;"/></g><g transform="matrix(1.481445,0,0,1.481445,953.893836,1746.634482)"><path d="M501,486C502,486 503,486 503,486C503,487 503,487 503,488C502,488 502,489 502,489C502,492 501,491 501,491C501,490 501,488 501,486Z" style="fill:rgb(153,151,146);fill-opacity:0.05;"/></g><g transform="matrix(1.481445,0,0,1.481445,953.893836,1746.634482)"><path d="M480,495C480,499 480,499 479,503C478,497 479,496 480,495Z" style="fill:rgb(151,148,144);fill-opacity:0.05;"/></g><g transform="matrix(1.481445,0,0,1.481445,953.893836,1746.634482)"><path d="M471,515C471,516 471,517 471,518L470,518L468,518C469,518 469,518 469,517C469,517 470,517 470,517C470,515 470,516 471,515Z" style="fill:rgb(165,164,164);fill-opacity:0.06;"/></g><g transform="matrix(1.481445,0,0,1.481445,953.893836,1746.634482)"><path d="M498,501C500,505 499,505 499,509C498,507 499,507 498,506C498,505 498,503 498,502L498,501Z" style="fill:rgb(171,169,165);fill-opacity:0.13;"/></g><g transform="matrix(1.481445,0,0,1.481445,953.893836,1746.634482)"><path d="M426,517C426,517 426,517 429,517C429,517 430,517 431,518L430,519C428,518 428,518 426,517Z" style="fill:rgb(204,205,205);fill-opacity:0.67;"/></g><g transform="matrix(1.481445,0,0,1.481445,953.893836,1746.634482)"><path d="M551,516C551,516 550,517 551,517C552,517 552,517 553,517C552,517 552,517 550,519L549,519C549,517 549,517 551,516Z" style="fill:rgb(154,155,153);fill-opacity:0.89;"/></g><g transform="matrix(1.481445,0,0,1.481445,953.893836,1746.634482)"><path d="M489,507C488,506 487,506 488,505C489,504 492,506 489,507Z" style="fill:none;"/></g><g transform="matrix(1.481445,0,0,1.481445,953.893836,1746.634482)"><path d="M485,532C484,531 483,531 484,530C485,529 488,531 485,532Z" style="fill:none;"/></g><g transform="matrix(1.481445,0,0,1.481445,953.893836,1746.634482)"><path d="M521,533C522,532 522,532 523,532C524,533 522,536 521,533Z" style="fill:none;"/></g><g transform="matrix(1.481445,0,0,1.481445,953.893836,1746.634482)"><path d="M474,508L474,510C473,511 473,511 473,513C473,510 473,510 473,509C473,508 472,508 473,508C473,507 473,508 474,508Z" style="fill:rgb(158,158,154);fill-opacity:0.18;"/></g><g transform="matrix(1.481445,0,0,1.481445,953.893836,1746.634482)"><path d="M542,471C543,471 544,471 544,472C543,472 543,472 542,471Z" style="fill:none;"/></g><g transform="matrix(1.481445,0,0,1.481445,953.893836,1746.634482)"><path d="M558,489C558,489 560,489 559,491C559,491 559,491 559,492C558,491 558,491 558,490L558,489Z" style="fill:rgb(206,206,205);fill-opacity:0.83;"/></g><g transform="matrix(1.481445,0,0,1.481445,953.893836,1746.634482)"><path d="M454,515C454,516 454,515 454,515C455,515 456,517 455,517C455,518 455,517 455,518C454,517 454,516 454,515Z" style="fill:rgb(60,58,57);fill-opacity:0.99;"/></g><g transform="matrix(1.481445,0,0,1.481445,953.893836,1746.634482)"><path d="M417,509C418,511 418,511 419,511L418,513C417,511 417,511 417,509Z" style="fill:rgb(139,140,138);fill-opacity:0.09;"/></g><g transform="matrix(1.481445,0,0,1.481445,953.893836,1746.634482)"><path d="M512,517C513,518 514,519 514,519C513,519 513,520 513,519C512,519 513,519 512,517Z" style="fill:rgb(162,162,163);fill-opacity:0.89;"/></g><g transform="matrix(1.481445,0,0,1.481445,953.893836,1746.634482)"><path d="M510,515C510,515 511,516 512,517C511,517 511,517 511,517C509,516 510,515 510,515Z" style="fill:rgb(163,163,162);fill-opacity:0.9;"/></g><g transform="matrix(1.481445,0,0,1.481445,953.893836,1746.634482)"><path d="M425,486C424,487 423,488 423,488C423,487 423,487 423,487C423,487 423,487 425,486Z" style="fill:rgb(162,161,160);fill-opacity:0.82;"/></g><g transform="matrix(1.481445,0,0,1.481445,953.893836,1746.634482)"><path d="M531,519L532,518C533,519 533,518 534,519C534,519 534,519 533,519C532,520 532,519 531,519Z" style="fill:rgb(49,49,49);"/></g><g transform="matrix(1.481445,0,0,1.481445,953.893836,1746.634482)"><path d="M513,481C513,481 512,482 511,483C511,482 511,482 511,482C512,480 512,481 513,481Z" style="fill:rgb(146,146,145);fill-opacity:0.85;"/></g><g transform="matrix(1.481445,0,0,1.481445,953.893836,1746.634482)"><path d="M538,476C541,476 541,477 541,477C540,477 539,476 538,476Z" style="fill:rgb(150,150,149);fill-opacity:0.89;"/></g><g transform="matrix(1.481445,0,0,1.481445,953.893836,1746.634482)"><path d="M523,474C524,474 525,474 525,474C524,474 524,474 523,474Z" style="fill:rgb(179,178,174);fill-opacity:0.11;"/></g><g transform="matrix(1.481445,0,0,1.481445,953.893836,1746.634482)"><path d="M417,501C417,502 417,502 417,503C417,502 417,502 417,501Z" style="fill:rgb(191,190,188);fill-opacity:0.39;"/></g><g transform="matrix(1.481445,0,0,1.481445,953.893836,1746.634482)"><path d="M505,511C504,511 504,511 503,511C504,511 504,511 505,511Z" style="fill:rgb(196,195,192);fill-opacity:0.29;"/></g><g transform="matrix(1.481445,0,0,1.481445,953.893836,1746.634482)"><path d="M528,516C530,516 529,516 530,516C530,516 530,517 529,517C529,517 529,516 528,516Z" style="fill:rgb(43,42,43);fill-opacity:1;"/></g></g></svg>