<?xml version="1.0" encoding="UTF-8" standalone="no"?><!DOCTYPE svg PUBLIC "-//W3C//DTD SVG 1.1//EN" "http://www.w3.org/Graphics/SVG/1.1/DTD/svg11.dtd"><svg width="222px" height="78px" version="1.1" xmlns="http://www.w3.org/2000/svg" xmlns:xlink="http://www.w3.org/1999/xlink" xml:space="preserve" xmlns:serif="http://www.serif.com/" style="fill-rule:evenodd;clip-rule:evenodd;stroke-linejoin:round;stroke-miterlimit:2;"><g transform="matrix(1,0,0,1,-1564.667689,-2009.58655)"><g transform="matrix(1.481445,0,0,1.481445,953.893836,1746.634482)"><path d="M526,180C526,180 527,180 528,180C533,181 533,181 534,181C535,181 541,183 545,187C550,189 556,187 552,190C550,193 552,193 555,195C556,195 557,195 557,196C558,196 560,196 560,197C560,198 560,199 557,199C553,200 556,202 555,212C555,212 554,220 547,220C543,221 546,215 547,215C555,193 526,177 511,191C508,193 511,193 511,193C529,181 539,201 538,208C535,228 520,225 515,225C510,223 509,223 509,222C509,222 508,221 507,220C501,215 501,212 500,209L500,203L500,202C501,201 501,199 501,199C503,194 502,193 508,188C508,187 508,187 509,187C510,186 511,185 511,185C514,182 514,183 518,181C520,181 525,180 526,180Z" style="fill:rgb(17,17,17);fill-opacity:1;"/></g><g transform="matrix(1.481445,0,0,1.481445,953.893836,1746.634482)"><path d="M444,180C447,180 446,180 449,180C450,180 451,180 452,181L453,181C459,183 459,183 463,187C469,192 469,193 472,201C472,206 473,206 472,212C469,219 467,222 456,225C429,226 433,197 445,191C459,185 466,199 463,193C460,184 427,179 426,207C426,216 433,221 425,220C424,220 424,219 424,219C420,216 421,216 419,212C418,205 420,203 418,200C415,199 415,199 415,197C416,196 416,196 417,196C418,196 425,196 421,192C420,192 420,192 419,191C420,186 422,188 427,187C428,187 428,187 429,187C430,186 430,186 431,185C432,184 436,182 439,181C441,181 441,181 444,180Z" style="fill:rgb(17,17,17);fill-opacity:1;"/></g><g transform="matrix(1.481445,0,0,1.481445,953.893836,1746.634482)"><path d="M555,212C555,213 555,213 555,215C555,216 555,217 555,218C554,218 554,218 554,220C554,220 553,220 553,220L553,221C552,221 550,221 549,221C537,220 533,226 528,226C525,226 526,226 524,227C521,227 518,227 515,227C514,226 513,226 512,225C512,225 512,225 515,225C520,225 535,228 538,208C539,201 529,181 511,193C511,193 508,193 511,191C526,177 555,193 547,215C546,215 543,221 547,220C554,220 555,212 555,212Z" style="fill:rgb(250,250,250);fill-opacity:0.98;"/></g><g transform="matrix(1.481445,0,0,1.481445,953.893836,1746.634482)"><path d="M423,220C423,220 424,220 425,220C433,221 426,216 426,207C427,179 460,184 463,193C466,199 459,185 445,191C433,197 429,226 456,225C458,225 458,225 460,225C459,226 457,226 456,227C452,226 453,226 449,227C440,226 438,222 428,221C426,221 425,221 424,221C423,221 423,220 423,220Z" style="fill:rgb(250,251,250);fill-opacity:0.99;"/></g><g transform="matrix(1.481445,0,0,1.481445,953.893836,1746.634482)"><path d="M545,187C546,187 548,186 549,186C552,186 552,187 555,186C555,187 555,189 555,192C555,193 555,193 556,193L557,193C558,193 558,193 559,193C559,193 559,193 562,195C561,197 562,198 561,200C560,200 560,200 559,201C557,201 557,202 556,202C555,208 557,210 557,211C557,213 557,213 555,215C555,213 555,213 555,212C556,202 553,200 557,199C560,199 560,198 560,197C560,196 558,196 557,196C556,195 556,195 555,195C552,193 550,193 552,190C556,187 550,189 545,187Z" style="fill:rgb(230,229,227);fill-opacity:0.51;"/></g><g transform="matrix(1.481445,0,0,1.481445,953.893836,1746.634482)"><path d="M453,181C455,181 455,181 457,180C457,180 460,180 465,184C465,186 465,186 467,186C468,187 468,187 468,187C468,188 468,188 469,188C469,189 472,193 472,193C472,194 472,195 473,195C473,198 473,198 472,201C469,193 469,192 463,187C459,183 459,183 453,181Z" style="fill:rgb(226,225,222);fill-opacity:0.62;"/></g><g transform="matrix(1.481445,0,0,1.481445,953.893836,1746.634482)"><path d="M519,201C510,206 510,195 516,194C523,194 520,201 519,201Z" style="fill:rgb(252,252,252);fill-opacity:1;"/></g><g transform="matrix(1.481445,0,0,1.481445,953.893836,1746.634482)"><path d="M452,195C463,198 451,207 448,201C446,196 452,195 452,195Z" style="fill:rgb(252,252,252);fill-opacity:1;"/></g><g transform="matrix(1.481445,0,0,1.481445,953.893836,1746.634482)"><path d="M472,212C472,213 473,214 473,215C473,215 473,215 473,216C471,217 472,217 471,219C467,222 467,222 464,225C463,225 463,225 460,225C458,225 458,225 456,225C467,222 469,219 472,212Z" style="fill:rgb(231,232,231);fill-opacity:0.69;"/></g><g transform="matrix(1.481445,0,0,1.481445,953.893836,1746.634482)"><path d="M500,209C501,212 501,215 507,220C507,222 507,222 509,222C509,223 510,223 515,225C512,225 512,225 512,225C510,225 510,225 506,224C505,222 505,222 504,220C504,220 503,219 503,219C502,219 502,219 501,219C501,217 500,216 500,216C500,215 500,215 500,214C499,214 500,214 499,213C499,212 500,210 500,209L500,209Z" style="fill:rgb(212,212,211);fill-opacity:0.71;"/></g><g transform="matrix(1.481445,0,0,1.481445,953.893836,1746.634482)"><path d="M538,180C541,182 542,181 545,183C549,187 551,183 555,186C552,187 552,186 549,186C548,186 546,187 545,187C541,183 535,181 534,181C535,181 538,180 538,180Z" style="fill:rgb(201,199,196);fill-opacity:0.45;"/></g><g transform="matrix(1.481445,0,0,1.481445,953.893836,1746.634482)"><path d="M445,178C446,178 446,178 447,178C455,179 456,180 457,180C455,181 455,181 453,181L452,181C452,180 452,180 452,179C451,179 451,179 449,180C446,180 447,180 444,180C441,180 441,180 440,179C441,178 443,178 445,178Z" style="fill:rgb(207,205,202);fill-opacity:0.46;"/></g><g transform="matrix(1.481445,0,0,1.481445,953.893836,1746.634482)"><path d="M515,180C516,181 517,181 518,181C514,183 514,182 511,185C510,185 510,184 509,186C509,186 509,186 509,187C508,187 508,187 508,188C504,190 504,189 503,189C505,188 505,188 505,188C509,183 509,183 509,182C510,182 510,182 510,182C512,182 511,182 512,181C515,181 515,180 515,180Z" style="fill:rgb(203,202,201);fill-opacity:0.55;"/></g><g transform="matrix(1.481445,0,0,1.481445,953.893836,1746.634482)"><path d="M473,195C474,197 474,197 474,200C474,201 472,204 474,213C474,214 474,214 473,215C473,214 472,213 472,212C473,206 472,206 472,201C473,198 473,198 473,195Z" style="fill:rgb(180,178,176);fill-opacity:0.57;"/></g><g transform="matrix(1.481445,0,0,1.481445,953.893836,1746.634482)"><path d="M508,188C502,193 503,194 501,199L500,196C500,196 500,194 503,189C504,189 504,190 508,188Z" style="fill:rgb(199,198,197);fill-opacity:0.75;"/></g><g transform="matrix(1.481445,0,0,1.481445,953.893836,1746.634482)"><path d="M499,198C499,198 499,199 500,202L500,203C500,206 500,206 500,209C500,210 499,212 499,213L499,213C498,213 498,212 498,212C499,207 498,206 498,205L498,203C498,200 498,200 499,198Z" style="fill:rgb(192,190,188);fill-opacity:0.47;"/></g><g transform="matrix(1.481445,0,0,1.481445,953.893836,1746.634482)"><path d="M418,200C420,203 418,205 419,212C418,213 418,213 418,215C418,215 418,214 418,213C418,212 418,211 418,210C417,205 417,205 418,200Z" style="fill:rgb(190,188,186);fill-opacity:0.78;"/></g><g transform="matrix(1.481445,0,0,1.481445,953.893836,1746.634482)"><path d="M530,179C536,179 538,180 538,180C538,180 535,181 534,181C533,181 533,181 528,180C528,180 529,179 530,179Z" style="fill:rgb(192,190,189);fill-opacity:0.58;"/></g><g transform="matrix(1.481445,0,0,1.481445,953.893836,1746.634482)"><path d="M521,179C522,179 522,180 526,180C525,180 520,181 518,181C517,181 516,181 515,180C518,179 518,179 521,179Z" style="fill:rgb(185,184,182);fill-opacity:0.6;"/></g><g transform="matrix(1.481445,0,0,1.481445,953.893836,1746.634482)"><path d="M419,212C421,216 420,216 424,219C422,219 421,218 420,218C419,217 420,216 418,215C418,213 418,213 419,212Z" style="fill:rgb(207,207,205);fill-opacity:0.76;"/></g><g transform="matrix(1.481445,0,0,1.481445,953.893836,1746.634482)"><path d="M418,186L419,186C423,187 423,187 427,187C422,188 420,186 419,191C419,188 419,189 418,186Z" style="fill:rgb(170,169,167);fill-opacity:0.81;"/></g><g transform="matrix(1.481445,0,0,1.481445,953.893836,1746.634482)"><path d="M500,196L501,199C501,199 501,201 500,202C499,199 499,198 499,198C500,197 500,197 500,197C500,196 500,197 500,196Z" style="fill:rgb(191,190,188);fill-opacity:0.66;"/></g><g transform="matrix(1.481445,0,0,1.481445,953.893836,1746.634482)"><path d="M465,184C466,185 466,185 466,185C466,186 468,184 469,188C468,188 468,188 468,187C468,187 468,187 467,186C465,186 465,186 465,184Z" style="fill:rgb(134,132,128);fill-opacity:0.04;"/></g><g transform="matrix(1.481445,0,0,1.481445,953.893836,1746.634482)"><path d="M420,218C421,218 422,219 424,219C424,219 424,220 425,220C424,220 423,220 423,220C422,220 421,220 421,219C420,219 420,218 420,218Z" style="fill:rgb(188,187,185);fill-opacity:0.56;"/></g><g transform="matrix(1.481445,0,0,1.481445,953.893836,1746.634482)"><path d="M485,230C482,229 485,227 486,228C487,229 486,229 485,230Z" style="fill:none;"/></g><g transform="matrix(1.481445,0,0,1.481445,953.893836,1746.634482)"><path d="M498,196C496,198 496,197 496,197C495,197 496,195 497,195C497,195 497,196 498,196Z" style="fill:none;"/></g><g transform="matrix(1.481445,0,0,1.481445,953.893836,1746.634482)"><path d="M515,227C518,227 521,227 524,227C519,227 520,227 515,227Z" style="fill:rgb(181,181,179);fill-opacity:0.46;"/></g><g transform="matrix(1.481445,0,0,1.481445,953.893836,1746.634482)"><path d="M413,195C413,197 413,197 413,199C412,197 412,197 413,195Z" style="fill:rgb(177,176,172);fill-opacity:0.31;"/></g><g transform="matrix(1.481445,0,0,1.481445,953.893836,1746.634482)"><path d="M449,227C453,226 452,226 456,227C452,227 453,227 449,227Z" style="fill:rgb(186,185,183);fill-opacity:0.47;"/></g><g transform="matrix(1.481445,0,0,1.481445,953.893836,1746.634482)"><path d="M512,181L512,181C511,182 512,182 510,182C510,182 510,182 509,182C510,182 511,181 512,181Z" style="fill:rgb(157,153,150);fill-opacity:0.05;"/></g><g transform="matrix(1.481445,0,0,1.481445,953.893836,1746.634482)"><path d="M499,213C500,214 499,214 500,214C500,215 500,215 500,216C500,215 499,214 499,213L499,213Z" style="fill:rgb(152,150,146);fill-opacity:0.09;"/></g><g transform="matrix(1.481445,0,0,1.481445,953.893836,1746.634482)"><path d="M500,203L500,209L500,209C500,206 500,206 500,203Z" style="fill:rgb(106,106,104);fill-opacity:0.88;"/></g><g transform="matrix(1.481445,0,0,1.481445,953.893836,1746.634482)"><path d="M473,216C472,218 472,217 471,219C472,217 471,217 473,216Z" style="fill:rgb(157,155,152);fill-opacity:0.07;"/></g><g transform="matrix(1.481445,0,0,1.481445,953.893836,1746.634482)"><path d="M553,221C552,221 550,221 549,221C550,221 552,221 553,221Z" style="fill:rgb(211,208,204);fill-opacity:0.44;"/></g><g transform="matrix(1.481445,0,0,1.481445,953.893836,1746.634482)"><path d="M417,196C416,196 416,196 415,197C415,196 415,196 415,196C416,194 417,195 417,196Z" style="fill:rgb(146,146,145);fill-opacity:0.89;"/></g><g transform="matrix(1.481445,0,0,1.481445,953.893836,1746.634482)"><path d="M449,180C451,179 451,179 452,179C452,180 452,180 452,181C451,180 450,180 449,180Z" style="fill:rgb(145,143,144);fill-opacity:0.83;"/></g><g transform="matrix(1.481445,0,0,1.481445,953.893836,1746.634482)"><path d="M511,185C511,185 510,186 509,187C509,186 509,186 509,186C510,184 510,185 511,185Z" style="fill:rgb(151,150,149);fill-opacity:0.87;"/></g><g transform="matrix(1.481445,0,0,1.481445,953.893836,1746.634482)"><path d="M512,181C512,181 512,181 515,180C515,180 515,181 512,181L512,181Z" style="fill:rgb(132,131,130);fill-opacity:0.14;"/></g><g transform="matrix(1.481445,0,0,1.481445,953.893836,1746.634482)"><path d="M507,220C508,221 509,222 509,222C507,222 507,222 507,220Z" style="fill:rgb(150,150,150);fill-opacity:0.88;"/></g><g transform="matrix(1.481445,0,0,1.481445,953.893836,1746.634482)"><path d="M431,185C430,186 430,186 429,187C429,186 429,186 429,186C429,184 431,185 431,185Z" style="fill:rgb(148,148,146);fill-opacity:0.87;"/></g><g transform="matrix(1.481445,0,0,1.481445,953.893836,1746.634482)"><path d="M557,193C558,193 558,193 559,193C558,193 558,193 557,193Z" style="fill:rgb(178,175,171);fill-opacity:0.02;"/></g><g transform="matrix(1.481445,0,0,1.481445,953.893836,1746.634482)"><path d="M557,193C557,193 558,192 558,192C559,192 559,193 559,193C558,193 558,193 557,193Z" style="fill:rgb(148,146,141);fill-opacity:0.01;"/></g><g transform="matrix(1.481445,0,0,1.481445,953.893836,1746.634482)"><path d="M445,178C446,177 446,177 447,178C446,178 446,178 445,178Z" style="fill:rgb(150,148,143);fill-opacity:0.09;"/></g><g transform="matrix(1.481445,0,0,1.481445,953.893836,1746.634482)"><path d="M417,188C417,189 417,190 417,192C417,190 417,190 417,188Z" style="fill:rgb(141,139,135);fill-opacity:0.08;"/></g><g transform="matrix(1.481445,0,0,1.481445,953.893836,1746.634482)"><path d="M555,195C556,195 556,195 557,196C557,195 556,195 555,195Z" style="fill:rgb(156,155,154);fill-opacity:0.86;"/></g></g></svg>