<?xml version="1.0" ?><svg xmlns="http://www.w3.org/2000/svg" xmlns:xlink="http://www.w3.org/1999/xlink" xmlns:serif="http://www.serif.com/" version="1.1" xml:space="preserve" style="fill-rule:evenodd;clip-rule:evenodd;stroke-linejoin:round;stroke-miterlimit:2;" viewBox="0 0 200 100"><g transform="matrix(1,0,0,1,-1947.596362,-890.992486)"><g transform="matrix(1.294922,0,0,1.294922,1912,500)"><path d="M58,305C67,304 67,304 72,305C82,306 92,309 101,321C107,329 99,334 90,326C79,318 77,316 62,316C58,317 58,317 54,318C38,323 34,337 29,329C26,326 28,319 37,313C46,306 46,307 58,305Z" style="fill:rgb(35,30,29);fill-opacity:0.98;"/></g><g transform="matrix(1.294922,0,0,1.294922,1912,500)"><path d="M62,302L65,302C63,302 63,302 62,302Z" style="fill:rgb(30,27,25);fill-opacity:0.03;"/></g><g transform="matrix(1.294922,0,0,1.294922,1912,500)"><path d="M105,325C105,327 105,330 104,327C104,327 105,327 105,325Z" style="fill:rgb(45,41,39);fill-opacity:0.02;"/></g></g></svg>