<?xml version="1.0" ?><svg xmlns="http://www.w3.org/2000/svg" xmlns:xlink="http://www.w3.org/1999/xlink" xmlns:serif="http://www.serif.com/" version="1.1" xml:space="preserve" style="fill-rule:evenodd;clip-rule:evenodd;stroke-linejoin:round;stroke-miterlimit:2;" viewBox="0 0 200 100"><g transform="matrix(1,0,0,1,-1921.221877,-1050.547125)"><g transform="matrix(1.294922,0,0,1.294922,1912,500)"><path d="M113,456C111,458 107,463 102,466C99,467 99,467 95,466C91,464 91,467 83,467C83,467 83,467 81,468C78,468 61,471 46,468C28,464 25,461 15,453C7,446 1,429 20,437C86,462 114,409 121,430C122,435 119,450 113,456Z" style="fill:rgb(33,29,28);fill-opacity:0.98;"/></g><g transform="matrix(1.294922,0,0,1.294922,1912,500)"><path d="M76,464C71,464 43,467 26,452C16,444 40,450 50,450C100,450 111,424 110,440C109,448 105,460 98,455C92,449 80,457 88,456C89,456 96,454 95,457C95,461 77,464 76,464Z" style="fill:rgb(249,249,248);fill-opacity:1;"/></g><g transform="matrix(1.294922,0,0,1.294922,1912,500)"><path d="M64,471C69,471 68,470 73,471C70,471 67,471 64,471Z" style="fill:rgb(45,41,39);fill-opacity:0.07;"/></g></g></svg>