<?xml version="1.0" ?><svg xmlns="http://www.w3.org/2000/svg" xmlns:xlink="http://www.w3.org/1999/xlink" xmlns:serif="http://www.serif.com/" version="1.1" xml:space="preserve" style="fill-rule:evenodd;clip-rule:evenodd;stroke-linejoin:round;stroke-miterlimit:2;" viewBox="0 0 200 100"><g transform="matrix(1,0,0,1,-2366.835652,-721.10832)"><g transform="matrix(1.294922,0,0,1.294922,1912,500)"><path d="M365,172C367,173 369,173 371,174L372,175C374,175 376,175 378,176C392,179 402,179 404,179L408,179C410,179 412,179 414,179C427,178 433,179 448,172C451,171 457,170 461,171C463,173 465,178 465,178C466,182 465,182 465,186C465,187 465,187 465,187C465,188 465,188 464,191C463,194 463,194 462,196C457,204 454,207 453,208C452,209 451,210 449,211C448,212 448,212 446,213C445,214 444,215 444,215C417,230 362,227 352,184C348,166 363,172 365,172Z" style="fill:rgb(36,27,27);fill-opacity:0.99;"/></g><g transform="matrix(1.294922,0,0,1.294922,1912,500)"><path d="M448,198C446,203 442,206 439,209C437,208 438,207 436,207C427,203 427,202 418,202C408,201 396,200 383,209C383,210 383,211 382,211C375,206 374,206 371,199C372,197 374,193 399,191C403,191 424,190 445,195C448,196 448,198 448,198Z" style="fill:rgb(205,86,78);fill-opacity:1;"/></g><g transform="matrix(1.294922,0,0,1.294922,1912,500)"><path d="M448,198C448,198 448,196 445,195C424,190 403,191 399,191C374,193 372,197 371,199C367,195 366,194 366,193C360,179 371,183 386,185C418,188 418,187 449,182C458,180 454,186 450,197L448,198Z" style="fill:rgb(74,35,35);"/></g><g transform="matrix(1.294922,0,0,1.294922,1912,500)"><path d="M439,209C410,225 391,215 382,211C383,211 383,210 383,209C396,200 408,201 418,202C427,202 427,203 436,207C438,207 437,208 439,209Z" style="fill:rgb(249,125,110);"/></g></g></svg>