<?xml version="1.0" ?><svg xmlns="http://www.w3.org/2000/svg" xmlns:xlink="http://www.w3.org/1999/xlink" xmlns:serif="http://www.serif.com/" version="1.1" xml:space="preserve" style="fill-rule:evenodd;clip-rule:evenodd;stroke-linejoin:round;stroke-miterlimit:2;" viewBox="0 0 200 100"><g transform="matrix(1,0,0,1,-2024.177987,-770.58669)"><g transform="matrix(1.504883,0,0,1.504883,2022.558551,768.793702)"><path d="M1022,683L1020,683C1020,683 1020,682 1020,682C1012,681 1012,682 12,682C10,682 8,682 5,682C4,682 4,682 3,682C3,682 3,683 2,683L2,683C1,675 1,675 1,40C1,2 1,1 2,1C4,1 1022,1 1022,1C1023,2 1023,2 1023,63C1023,113 1023,676 1022,683Z" style="fill:rgb(248,248,248);fill-opacity:1;"/></g><g transform="matrix(1.504883,0,0,1.504883,2022.558551,768.793702)"><path d="M852,261C858,265 865,271 878,273C907,278 927,262 930,261C931,260 941,258 936,284C933,289 934,289 930,294C928,298 911,319 876,310C857,306 843,289 846,269C847,257 851,261 852,261Z" style="fill:rgb(34,23,21);"/></g><g transform="matrix(1.504883,0,0,1.504883,2022.558551,768.793702)"><path d="M864,278C859,276 855,273 855,279L856,280L856,280L856,282L856,282C859,286 860,286 861,287C859,291 860,291 858,291C854,291 848,264 855,269C875,283 904,282 924,271C924,271 929,268 930,269C934,274 925,297 923,291C921,286 921,286 919,281C916,273 915,282 915,282L913,280C910,281 908,281 909,285C910,286 910,286 910,288L910,288L912,290C908,296 905,282 901,283C898,283 893,298 889,293C884,287 882,280 879,284C874,289 872,295 869,289C866,282 868,279 864,278Z" style="fill:rgb(231,229,229);"/></g><g transform="matrix(1.504883,0,0,1.504883,2022.558551,768.793702)"><path d="M936,284L936,285C938,285 938,285 940,285C943,286 943,297 939,297C937,297 937,297 934,297C933,296 934,296 933,297C931,297 932,296 932,295C931,295 931,295 930,294C934,289 933,289 936,284Z" style="fill:rgb(232,231,231);"/></g><g transform="matrix(1.504883,0,0,1.504883,2022.558551,768.793702)"><path d="M864,278C862,280 863,280 861,287C860,286 859,286 856,283L856,282L856,280L856,280L855,278C855,273 859,276 864,278Z" style="fill:rgb(230,229,228);"/></g><g transform="matrix(1.504883,0,0,1.504883,2022.558551,768.793702)"><path d="M902,305C896,306 896,306 895,306C895,305 898,293 904,302C906,304 904,304 902,305Z" style="fill:rgb(246,245,244);"/></g><g transform="matrix(1.504883,0,0,1.504883,2022.558551,768.793702)"><path d="M883,305C882,305 876,305 878,302C882,295 884,300 886,303C888,306 885,305 883,305Z" style="fill:rgb(247,246,245);"/></g><g transform="matrix(1.504883,0,0,1.504883,2022.558551,768.793702)"><path d="M915,282C914,284 913,287 912,290L910,288L910,288C910,286 910,286 909,285C908,281 910,281 913,280L915,282Z" style="fill:rgb(242,241,241);"/></g></g></svg>