<?xml version="1.0" ?><svg xmlns="http://www.w3.org/2000/svg" xmlns:xlink="http://www.w3.org/1999/xlink" xmlns:serif="http://www.serif.com/" version="1.1" xml:space="preserve" style="fill-rule:evenodd;clip-rule:evenodd;stroke-linejoin:round;stroke-miterlimit:2;" viewBox="0 0 200 100"><g transform="matrix(1,0,0,1,-2143.321656,-1061.024742)"><g transform="matrix(1.294922,0,0,1.294922,1912,500)"><path d="M287,457C287,458 282,463 279,465C271,471 272,471 263,474C241,482 225,478 224,477C220,476 195,471 182,450C171,430 191,437 194,438C246,452 286,432 291,433C302,438 291,451 287,457Z" style="fill:rgb(36,28,28);fill-opacity:0.98;"/></g><g transform="matrix(1.294922,0,0,1.294922,1912,500)"><path d="M248,471C245,472 231,476 218,467C211,463 235,455 254,460C261,462 261,464 261,465C260,467 249,471 248,471Z" style="fill:rgb(248,130,113);fill-opacity:1;"/></g><g transform="matrix(1.294922,0,0,1.294922,1912,500)"><path d="M246,448C261,446 261,447 274,444C282,443 274,463 267,455C262,450 259,452 252,453C230,455 201,453 198,448C193,443 211,451 246,448Z" style="fill:rgb(244,243,241);fill-opacity:1;"/></g></g></svg>