<?xml version="1.0" ?><svg xmlns="http://www.w3.org/2000/svg" xmlns:xlink="http://www.w3.org/1999/xlink" xmlns:serif="http://www.serif.com/" version="1.1" xml:space="preserve" style="fill-rule:evenodd;clip-rule:evenodd;stroke-linejoin:round;stroke-miterlimit:2;" viewBox="0 0 455 354"><g transform="matrix(1,0,0,1,-36.105704,-1.704853)"><g id="Mesa-de-trabajo1" serif:id="Mesa de trabajo1" transform="matrix(1,0,0,1,33.772036,-0.808526)"><path d="M239,9C241,11 241,12 244,11C256,8 256,9 256,8C270,5 278,10 293,13C299,15 311,24 315,30C318,36 324,31 334,38C337,41 339,37 346,44C350,48 350,48 350,48C351,49 351,49 352,49C355,53 357,52 360,56C360,58 360,58 361,59C362,61 362,61 363,62C363,63 365,64 366,68C366,70 366,77 369,85C370,89 383,95 387,101C387,102 387,103 388,103C388,104 388,104 388,105C393,110 389,112 392,116C395,120 393,121 393,123C393,124 397,133 394,138C389,144 395,145 400,147C405,151 409,151 412,152C418,156 418,155 424,157C443,167 445,163 450,170C455,178 456,178 457,188C456,190 455,190 456,193C455,193 457,194 442,207C441,208 441,208 440,209C433,212 433,211 426,213C420,212 420,213 420,214C414,214 414,213 408,212C396,209 396,209 384,205C382,207 386,213 388,217C395,233 386,262 377,265C374,266 370,269 370,269C362,274 365,281 363,284C360,286 359,288 359,289C355,292 357,294 354,296C348,299 349,300 345,301C340,302 340,302 337,304C336,304 336,304 336,304C335,304 335,304 330,305C329,306 325,304 320,306C308,310 319,312 323,316C326,320 328,319 331,323C331,323 332,325 333,325C340,334 339,335 346,343C346,346 346,346 351,355C343,355 343,355 336,355C336,352 338,349 338,346C336,340 316,318 315,318C305,308 297,317 285,317C266,317 267,325 246,324C204,322 203,326 184,319C173,315 173,317 161,315C161,315 158,314 153,313C143,312 125,336 123,340C119,348 124,350 121,351C119,353 118,352 116,355C114,355 103,356 105,353C109,350 106,348 110,345C116,339 115,337 119,331C123,328 121,326 125,324C131,320 128,316 135,315C138,313 149,307 137,305C135,305 135,306 122,304C119,303 113,301 113,301C109,300 108,298 106,297C103,296 103,296 100,294C100,291 99,292 98,292C89,279 96,271 86,267C82,266 80,266 79,263C79,262 79,262 73,253C67,245 69,244 67,235C67,232 67,230 67,227C68,222 68,218 68,217C69,216 69,216 74,206C78,200 71,205 66,207C62,208 50,214 36,212C17,208 13,206 4,193C-3,183 12,164 14,163C23,163 23,160 27,159C32,159 32,158 36,156C40,154 41,157 49,152C52,149 53,150 66,143C72,140 65,132 64,126C62,101 72,92 76,84C78,80 80,81 83,79C89,73 97,74 97,68C98,53 103,54 106,46C108,41 110,42 114,38C116,34 118,36 121,33C124,31 124,32 127,30C132,26 133,29 138,26C142,25 142,26 146,25C153,23 158,25 161,23C165,18 165,18 170,15C180,8 181,10 186,7C191,5 191,6 196,4C203,3 203,4 207,3C209,3 209,2 222,4C230,6 230,6 239,9Z" style="fill:rgb(176,159,138);fill-opacity:0.97;"/><path d="M99,145C86,144 76,145 71,122C68,106 76,88 92,80C102,75 102,74 105,63C117,24 160,32 166,27C172,22 172,18 194,11C220,4 239,17 242,17C247,17 286,3 309,36C317,46 336,34 355,63C365,77 355,84 369,94C385,105 386,113 388,126C390,142 371,152 356,141C346,134 346,147 327,150C312,152 285,148 271,128C271,127 267,122 265,122C264,122 246,142 214,136C192,131 191,118 186,126C170,148 140,153 117,147C108,145 108,144 99,145Z" style="fill:rgb(251,250,244);fill-opacity:1;"/><path d="M225,144C226,144 226,144 227,143L230,143C246,142 246,142 259,135C265,133 266,133 270,137C270,138 270,138 276,142C283,149 305,156 310,156C320,156 320,157 329,156L329,157C329,159 329,159 330,160L330,163L330,164C330,165 330,165 331,166L331,167L331,168C332,172 332,172 332,172C332,176 332,175 333,178C333,179 333,180 334,181C334,185 334,184 335,187C335,188 335,189 336,190C336,194 338,198 338,202C338,204 338,204 339,205C339,206 339,207 339,207L339,208C339,209 339,210 340,211L340,212C340,213 340,214 340,215L340,217C340,220 340,220 340,220C340,221 341,221 341,221C341,227 341,227 341,235C339,237 340,237 340,239L340,240L340,242L340,244C339,245 339,245 339,246L339,247C339,247 339,247 338,249C338,250 338,251 337,252C337,253 331,265 330,265C330,266 320,277 317,278C317,278 315,280 314,280C314,281 313,281 313,282C312,282 311,283 309,283C309,284 308,284 307,284C307,285 298,289 296,290C293,290 293,292 290,292C288,293 288,293 288,293C284,294 284,294 284,294C281,295 281,295 281,295C280,295 279,295 278,296C275,296 275,296 273,297C272,297 271,297 270,298L269,298L268,298L267,298C265,298 265,298 264,299L261,299L259,299C256,299 256,299 256,299C255,299 255,300 255,300C253,300 251,300 249,300L246,300C241,299 222,300 220,300L215,300C212,300 210,300 208,300C206,300 206,299 204,299C202,298 202,299 197,299L194,299L191,299L189,299C188,298 188,298 187,298L186,298L184,298C183,298 182,297 181,297L179,297C178,297 177,296 176,296L174,296C173,295 173,295 172,295C171,295 170,294 169,294C168,294 167,294 166,293C164,293 164,292 162,292C162,292 162,292 161,291C159,291 159,290 157,290C157,290 157,290 156,289C155,289 153,288 153,287C152,287 151,287 151,286C147,286 131,273 127,268C126,267 126,267 125,266C121,261 122,260 122,259C120,259 120,256 119,253C118,251 118,251 117,249C117,248 117,248 116,247L116,246C116,245 115,243 115,241L115,240C115,237 115,237 114,236C114,234 114,232 114,229L114,226L114,221C115,218 115,218 115,216L115,215L115,213C115,212 116,211 116,210L116,209C116,208 117,207 117,206L117,204C117,203 118,202 118,201L118,200C118,199 119,198 119,197L119,195C120,194 120,194 120,193C120,192 120,191 121,190L121,189C121,188 121,187 122,186L122,185C123,183 123,183 123,181L123,180C123,179 124,178 124,177L124,175L124,173C125,172 125,172 125,171L125,169L125,167C125,165 125,163 125,162C125,160 125,160 124,159C124,157 124,157 124,157C124,157 124,157 124,156C162,155 164,152 185,136C191,132 203,144 225,144Z" style="fill:rgb(246,212,162);fill-opacity:0.99;"/><path d="M124,156C124,157 124,157 124,157C124,157 124,157 124,159C124,162 124,162 124,162C124,163 125,163 125,163C125,164 125,166 125,167L125,169C125,169 124,169 124,170C124,170 124,170 124,175L124,177C124,178 123,179 123,180L123,181C123,182 122,183 122,185L122,186C121,187 121,188 121,189L121,190C120,191 120,192 120,193L120,194C119,195 119,196 119,197C119,198 118,199 118,200L118,201C118,202 117,203 117,204L117,206C117,207 116,208 116,209L116,210C115,211 115,211 115,213L115,215C114,217 114,217 114,220L114,221L114,226C114,226 113,226 113,227C113,229 114,229 114,229C114,232 114,234 114,236C114,238 113,239 115,241C115,243 116,245 116,246C116,247 116,247 117,248L117,249C118,251 118,251 119,253C120,256 120,259 122,259C122,260 121,261 125,266C126,267 126,267 127,268C131,273 147,286 151,286C151,287 152,287 153,287C153,288 155,289 156,289C156,289 157,290 157,290C159,290 159,291 161,291C161,291 162,292 162,292C164,292 164,293 166,293C167,294 168,294 169,294C169,294 169,294 172,295L173,295C174,296 175,296 176,296C177,296 178,297 179,297L181,297C182,297 183,298 184,298L186,298C188,299 188,299 191,299L194,299C199,302 199,300 205,300L208,300C210,300 212,300 215,300C220,303 220,301 226,301C245,301 245,301 246,301C248,301 248,301 249,300C251,300 253,300 255,300C258,300 258,301 261,299L264,299C266,299 266,299 268,298L269,298C271,298 271,299 273,297C275,296 275,296 278,296C279,295 280,295 281,295C282,294 282,295 284,294C284,294 284,294 288,293C288,293 288,293 288,293C289,293 289,293 290,292C293,292 293,290 296,290C298,289 307,285 307,284C308,284 309,284 309,283C311,283 312,282 313,282C313,281 314,281 314,280C315,280 317,278 317,278C320,277 330,266 330,265C331,265 337,253 337,252C338,251 338,250 338,249C338,249 338,249 338,248C339,248 339,248 339,247L339,246L339,245C340,244 340,243 340,242L340,240C341,238 341,238 341,235C341,227 341,227 341,221C341,219 341,220 341,218C341,216 341,216 340,215C340,214 340,213 340,212C340,210 341,209 339,207C339,207 339,206 339,205C338,204 338,203 338,202C338,198 336,194 336,190C335,189 335,188 335,187C334,184 334,185 334,181C333,180 333,179 333,178C332,175 332,176 332,172C332,170 332,170 331,168L331,167C331,165 331,165 330,163L330,160C330,159 329,158 329,157L329,156C348,149 348,149 350,150C353,152 361,170 361,178C361,179 361,187 363,189C363,190 363,189 366,193C368,202 371,200 375,204C381,210 391,251 365,260C364,260 355,261 356,265C357,270 361,283 342,293C326,301 320,291 314,299C310,303 297,312 285,309C278,307 277,306 271,312C269,313 253,323 235,314C228,310 226,316 218,317C186,319 188,309 182,307C178,306 166,314 150,303C139,295 138,295 136,295C135,296 123,300 112,293C106,289 99,278 99,270C100,265 103,262 98,261C90,259 87,259 80,250C78,247 68,233 83,203C88,191 90,193 93,190C101,182 91,178 102,157C106,149 108,151 113,153C116,155 120,154 124,156Z" style="fill:rgb(234,230,217);fill-opacity:0.99;"/><path d="M118,356L116,355C118,352 119,353 121,351C124,350 119,348 123,340C125,336 143,312 153,313C158,314 161,315 161,315C173,317 173,315 184,319C203,326 204,322 246,324C267,325 266,317 285,317C297,317 305,308 315,318C316,318 336,340 338,346C338,349 336,352 336,355C321,355 322,355 307,355C307,354 307,353 307,352C307,351 304,348 304,355C253,355 203,355 152,355C152,354 151,349 151,349C151,348 151,348 150,348C151,347 151,346 152,345C152,339 152,339 152,338C154,327 154,327 155,326C156,326 160,324 158,318C153,309 146,340 148,347C149,351 148,351 147,355C136,355 119,355 118,355C118,355 118,356 118,356Z" style="fill:rgb(248,245,235);fill-opacity:1;"/><path d="M430,195C406,196 395,194 370,171C366,168 352,149 355,149C364,149 365,152 380,147C387,145 387,149 422,162C424,162 452,171 447,185C445,193 431,195 430,195Z" style="fill:rgb(251,219,167);"/><path d="M97,150C100,150 99,152 97,155C56,216 -6,196 14,171C24,160 29,168 62,151C75,144 75,144 86,148C94,150 94,150 97,150Z" style="fill:rgb(251,220,169);"/><path d="M152,345C151,346 151,347 150,348C151,348 151,348 151,349C151,349 152,354 152,355C150,355 149,355 147,355C148,351 149,351 148,347C146,340 153,309 158,318C160,324 156,326 155,326C154,327 154,327 152,338C152,339 152,339 152,345Z" style="fill:rgb(215,210,199);fill-opacity:1;"/><path d="M215,300L220,300C233,300 233,300 246,300L249,300C248,301 248,301 246,301C245,301 245,301 226,301C220,301 220,303 215,300Z" style="fill:rgb(238,225,200);fill-opacity:0.89;"/><path d="M304,355C304,348 307,351 307,352C307,353 307,354 307,355L304,355Z" style="fill:rgb(168,160,149);fill-opacity:0.98;"/><path d="M220,300C222,300 241,299 246,300C233,300 233,300 220,300Z" style="fill:rgb(242,219,182);fill-opacity:0.91;"/><path d="M194,299L197,299C201,299 201,299 205,300C199,300 199,302 194,299Z" style="fill:rgb(238,225,200);fill-opacity:0.89;"/><path d="M197,299C202,299 202,298 204,299C206,299 206,300 208,300L205,300C201,299 201,299 197,299Z" style="fill:rgb(241,220,185);fill-opacity:0.92;"/><path d="M255,300C256,300 258,299 259,299L261,299C258,301 258,300 255,300Z" style="fill:rgb(238,224,199);fill-opacity:0.89;"/><path d="M340,215C341,216 341,216 341,218C341,220 341,219 341,221L340,217L340,215Z" style="fill:rgb(238,224,199);fill-opacity:0.89;"/><path d="M124,159C125,160 125,161 125,162C125,163 125,165 125,167C125,166 125,164 125,163C125,163 124,163 124,162C124,162 124,162 124,159Z" style="fill:rgb(239,223,196);fill-opacity:0.91;"/><path d="M125,169L125,171C125,172 125,172 124,173L124,175C124,170 124,170 124,170C124,169 125,169 125,169Z" style="fill:rgb(238,225,200);fill-opacity:0.9;"/><path d="M426,213C423,214 423,213 420,214C420,213 420,212 426,213Z" style="fill:rgb(141,120,93);fill-opacity:0.16;"/><path d="M114,236C115,237 115,238 115,240L115,241C113,239 114,238 114,236Z" style="fill:rgb(239,224,197);fill-opacity:0.9;"/><path d="M339,207C341,209 340,210 340,212L340,211C339,210 339,209 339,208L339,207Z" style="fill:rgb(239,224,196);fill-opacity:0.91;"/><path d="M115,215L115,216C115,217 114,218 114,220C114,217 114,217 115,215Z" style="fill:rgb(238,224,199);fill-opacity:0.89;"/><path d="M341,235C341,238 341,238 340,240L340,239C340,237 340,238 341,235Z" style="fill:rgb(238,224,199);fill-opacity:0.9;"/><path d="M114,226L114,229C114,229 113,229 113,227C113,226 114,226 114,226Z" style="fill:rgb(238,225,201);fill-opacity:0.89;"/><path d="M331,168C332,170 332,170 332,172C332,172 332,172 331,168Z" style="fill:rgb(239,223,195);fill-opacity:0.89;"/><path d="M330,163C331,165 331,165 331,167L331,166C330,165 330,165 330,164L330,163Z" style="fill:rgb(238,224,198);fill-opacity:0.9;"/><path d="M186,298L187,298L189,299L191,299C188,299 188,299 186,298Z" style="fill:rgb(238,224,198);fill-opacity:0.9;"/><path d="M267,298L268,298C266,299 266,299 264,299C265,298 266,298 267,298Z" style="fill:rgb(239,223,196);fill-opacity:0.9;"/><path d="M340,217L341,221C341,221 340,221 340,220C340,220 340,220 340,217Z" style="fill:rgb(242,219,183);fill-opacity:0.9;"/><path d="M123,181C123,183 123,183 122,185C122,183 123,182 123,181Z" style="fill:rgb(239,223,195);fill-opacity:0.91;"/><path d="M255,300C255,300 255,299 256,299C256,299 256,299 259,299C258,299 256,300 255,300Z" style="fill:rgb(242,219,183);fill-opacity:0.9;"/><path d="M98,292C99,292 100,291 100,294C99,293 99,293 98,292Z" style="fill:rgb(146,140,130);fill-opacity:0.14;"/><path d="M360,56C360,57 360,57 361,57L361,59C360,58 360,58 360,56Z" style="fill:rgb(151,144,131);fill-opacity:0.22;"/><path d="M273,297C271,299 271,298 269,298L270,298C271,297 272,297 273,297Z" style="fill:rgb(239,223,195);fill-opacity:0.92;"/><path d="M115,216C115,218 115,218 114,221L114,220C114,218 115,217 115,216Z" style="fill:rgb(241,220,186);fill-opacity:0.93;"/><path d="M341,235C340,238 340,237 340,239C340,237 339,237 341,235Z" style="fill:rgb(241,220,185);fill-opacity:0.92;"/><path d="M114,236C115,237 115,237 115,240C115,238 115,237 114,236Z" style="fill:rgb(242,219,183);fill-opacity:0.91;"/><path d="M442,207C441,208 441,208 440,209C441,208 441,208 442,207Z" style="fill:rgb(140,118,88);fill-opacity:0.17;"/><path d="M116,210C116,211 115,212 115,213C115,211 115,211 116,210Z" style="fill:rgb(239,224,197);fill-opacity:0.89;"/><path d="M227,144C228,143 228,143 230,143L227,143L227,144Z" style="fill:rgb(209,182,145);fill-opacity:0.88;"/><path d="M329,157C329,158 330,159 330,160C329,159 329,159 329,157Z" style="fill:rgb(241,219,183);fill-opacity:0.9;"/><path d="M181,297C182,297 183,298 184,298C183,298 182,297 181,297Z" style="fill:rgb(239,224,197);fill-opacity:0.89;"/><path d="M124,177C124,178 123,179 123,180C123,179 124,178 124,177Z" style="fill:rgb(239,224,197);fill-opacity:0.9;"/><path d="M118,201C118,202 117,203 117,204C117,203 118,202 118,201Z" style="fill:rgb(239,224,197);fill-opacity:0.89;"/><path d="M176,296C177,296 178,297 179,297C178,297 177,296 176,296Z" style="fill:rgb(239,224,197);fill-opacity:0.9;"/><path d="M119,197C119,198 118,199 118,200C118,199 119,198 119,197Z" style="fill:rgb(239,223,196);fill-opacity:0.91;"/><path d="M117,206C117,207 116,208 116,209C116,208 117,207 117,206Z" style="fill:rgb(239,223,196);fill-opacity:0.91;"/><path d="M122,186C121,187 121,188 121,189C121,188 121,187 122,186Z" style="fill:rgb(239,223,196);fill-opacity:0.92;"/><path d="M187,298C188,298 188,298 189,299L187,298Z" style="fill:rgb(241,220,184);fill-opacity:0.88;"/><path d="M116,246L116,247L117,248C116,247 116,247 116,246Z" style="fill:rgb(239,223,194);fill-opacity:0.91;"/><path d="M340,242C340,243 340,244 339,245L340,244L340,242Z" style="fill:rgb(239,223,194);fill-opacity:0.91;"/><path d="M338,249C338,250 338,251 337,252C338,251 338,250 338,249Z" style="fill:rgb(239,223,195);fill-opacity:0.93;"/><path d="M121,190C120,191 120,192 120,193C120,192 120,191 121,190Z" style="fill:rgb(239,223,195);fill-opacity:0.93;"/><path d="M338,202C338,203 338,204 339,205C338,204 338,204 338,202Z" style="fill:rgb(242,219,183);fill-opacity:0.91;"/><path d="M267,298C266,298 265,298 264,299C265,298 265,298 267,298Z" style="fill:rgb(242,219,183);fill-opacity:0.92;"/><path d="M166,293C167,294 168,294 169,294C168,294 167,294 166,293Z" style="fill:rgb(239,223,195);fill-opacity:0.93;"/><path d="M339,208C339,209 339,210 340,211C339,210 339,209 339,208Z" style="fill:rgb(242,220,183);fill-opacity:0.9;"/><path d="M173,295L174,296L176,296C175,296 174,296 173,295Z" style="fill:rgb(239,223,195);fill-opacity:0.93;"/><path d="M125,171C125,172 125,172 124,173C125,172 125,172 125,171Z" style="fill:rgb(241,220,186);fill-opacity:0.89;"/><path d="M120,194L119,195L119,197C119,196 119,195 120,194Z" style="fill:rgb(239,223,195);fill-opacity:0.94;"/><path d="M273,297C272,297 271,297 270,298C271,297 272,297 273,297Z" style="fill:rgb(241,220,184);fill-opacity:0.91;"/><path d="M330,164C330,165 330,165 331,166C330,165 330,165 330,164Z" style="fill:rgb(241,220,186);fill-opacity:0.89;"/><path d="M124,159C125,160 125,160 125,162C125,161 125,160 124,159Z" style="fill:rgb(241,220,184);fill-opacity:0.92;"/><path d="M225,144L227,144L227,143C226,144 226,144 225,144Z" style="fill:rgb(220,191,150);fill-opacity:0.88;"/><path d="M387,101C387,102 387,103 388,103C387,103 387,102 387,101Z" style="fill:rgb(114,109,100);fill-opacity:0.18;"/><path d="M169,294C170,294 171,295 172,295C169,294 169,294 169,294Z" style="fill:rgb(240,222,190);fill-opacity:0.93;"/><path d="M333,178C333,179 333,180 334,181C333,180 333,179 333,178Z" style="fill:rgb(241,220,185);fill-opacity:0.92;"/><path d="M340,244L339,245L339,246C339,245 339,245 340,244Z" style="fill:rgb(241,220,186);fill-opacity:0.91;"/><path d="M335,187C335,188 335,189 336,190C335,189 335,188 335,187Z" style="fill:rgb(241,220,185);fill-opacity:0.91;"/><path d="M288,293C288,293 288,293 290,292C289,293 289,293 288,293C288,293 288,293 288,293Z" style="fill:rgb(241,221,189);fill-opacity:0.92;"/><path d="M339,247C339,248 339,248 338,248C338,249 338,249 338,249C339,247 339,247 339,247Z" style="fill:rgb(240,221,189);fill-opacity:0.92;"/><path d="M284,294C282,295 282,294 281,295C281,295 281,295 284,294Z" style="fill:rgb(241,220,187);fill-opacity:0.94;"/><path d="M309,283C309,284 308,284 307,284C308,284 309,284 309,283Z" style="fill:rgb(240,221,189);fill-opacity:0.95;"/><path d="M151,286C151,287 152,287 153,287C152,287 151,287 151,286Z" style="fill:rgb(240,221,188);fill-opacity:0.95;"/><path d="M314,280C314,281 313,281 313,282C313,281 314,281 314,280Z" style="fill:rgb(240,221,189);fill-opacity:0.94;"/><path d="M116,247C117,248 117,248 117,249L117,248L116,247Z" style="fill:rgb(241,221,187);fill-opacity:0.92;"/><path d="M120,193C120,194 120,194 119,195L120,194L120,193Z" style="fill:rgb(241,221,187);fill-opacity:0.91;"/><path d="M281,295C280,295 279,295 278,296C279,295 280,295 281,295Z" style="fill:rgb(241,220,185);fill-opacity:0.93;"/><path d="M172,295C173,295 173,295 174,296L173,295L172,295Z" style="fill:rgb(241,221,187);fill-opacity:0.92;"/><path d="M156,289C157,290 157,290 157,290C157,290 156,289 156,289Z" style="fill:rgb(239,223,194);fill-opacity:0.9;"/><path d="M161,291C162,292 162,292 162,292C162,292 161,291 161,291Z" style="fill:rgb(239,223,194);fill-opacity:0.9;"/></g></g></svg>