<?xml version="1.0" ?><svg xmlns="http://www.w3.org/2000/svg" xmlns:xlink="http://www.w3.org/1999/xlink" xmlns:serif="http://www.serif.com/" version="1.1" xml:space="preserve" style="fill-rule:evenodd;clip-rule:evenodd;stroke-linejoin:round;stroke-miterlimit:2;" viewBox="0 0 250 100"><g transform="matrix(1,0,0,1,-1717.215621,-1056.025037)"><g transform="matrix(1.504883,0,0,1.504883,1466.496632,270.794887)"><path d="M193,524C193,524 194,523 194,523C195,523 195,524 195,524C196,524 196,523 196,523C198,522 202,526 202,526C202,527 203,528 203,528C204,530 204,530 205,531C208,537 208,537 209,537C209,537 209,536 210,536C215,538 215,536 220,538C225,542 224,547 226,544C227,543 227,543 229,542C229,542 230,543 230,543L232,543L232,543L234,543C236,543 236,544 236,546C236,547 235,547 234,547C230,547 230,547 226,547C223,547 223,546 221,549C220,550 220,550 219,551C213,556 218,559 217,566L217,566C217,568 217,571 213,570C211,569 211,570 208,569C193,562 193,567 187,569C182,571 182,569 181,568L181,566L181,566C181,559 182,556 182,554C181,553 180,554 180,554C180,553 180,553 180,553C180,553 180,553 179,552C178,550 178,550 176,549C174,547 173,547 173,543C173,539 176,539 176,538C176,538 175,538 175,538C176,537 176,537 176,537C177,537 177,537 178,537C179,537 179,537 183,536C186,536 186,537 187,535C189,534 190,535 190,532C190,531 191,532 191,530C191,530 191,530 191,529C191,529 192,529 192,528C192,528 192,529 191,527C191,527 192,527 192,527C192,525 192,525 193,524Z" style="fill:rgb(247,189,55);fill-opacity:0.99;"/></g><g transform="matrix(1.504883,0,0,1.504883,1466.496632,270.794887)"><path d="M251,536C252,536 252,536 253,536C257,536 256,532 260,528C263,522 265,522 269,527C269,528 272,534 272,535C273,536 273,536 275,535C275,536 276,536 277,536C282,537 282,537 286,537C292,543 290,545 289,546C286,550 286,549 282,552C279,556 288,573 277,570C277,570 271,568 270,567C263,564 262,565 255,568C249,570 248,573 245,568L245,564C246,560 247,558 247,554C247,551 244,553 239,545C239,542 239,541 241,539C242,539 242,539 242,539C243,538 243,538 243,537C244,537 247,537 251,536Z" style="fill:rgb(248,189,55);fill-opacity:0.99;"/></g><g transform="matrix(1.504883,0,0,1.504883,1466.496632,270.794887)"><path d="M215,547C215,547 211,551 211,551C206,556 214,564 211,564C205,564 205,555 191,562C188,563 185,565 187,561C188,554 188,552 180,545C176,541 181,542 190,541C195,540 195,525 199,533C202,537 202,537 202,537C206,544 207,541 217,542C219,542 215,547 215,547Z" style="fill:rgb(27,25,21);fill-opacity:1;"/></g><g transform="matrix(1.504883,0,0,1.504883,1466.496632,270.794887)"><path d="M262,534C262,533 262,532 263,531C264,530 264,531 268,538C273,546 288,539 284,544C283,544 278,549 278,550C270,557 281,564 276,564C269,563 268,554 253,563C250,565 252,557 253,554C253,550 245,546 245,543C245,542 254,542 254,541C258,541 259,539 262,534Z" style="fill:rgb(25,23,20);fill-opacity:0.99;"/></g><g transform="matrix(1.504883,0,0,1.504883,1466.496632,270.794887)"><path d="M175,538C175,538 176,538 176,538C176,539 173,539 173,543C173,547 174,547 176,549C178,550 178,550 179,552C180,553 180,553 180,553C180,553 180,553 180,554C180,554 181,553 182,554C182,556 181,559 181,566L181,566L181,568C182,569 182,571 187,569C193,567 193,562 208,569C211,570 211,569 213,570C217,571 217,568 217,566L217,566C218,559 213,556 219,551C220,550 220,550 221,549C223,546 223,547 226,547C230,548 230,547 234,547C235,547 236,547 236,546C238,546 238,546 239,545C244,553 247,551 247,554C247,558 246,560 245,564C245,566 245,566 245,568C248,573 249,570 255,568C262,565 263,564 270,567C271,568 277,570 277,570C288,573 279,556 282,552C286,549 286,550 289,546C290,545 292,543 286,537C286,537 287,538 287,538L288,538C292,539 291,540 292,544C292,545 291,546 291,547C288,552 287,551 286,552C286,553 286,554 284,556C284,558 284,558 284,561C284,563 284,562 285,564C285,568 285,567 284,570C283,571 283,571 282,572C282,572 282,572 281,572C281,572 280,573 280,573L277,573C276,572 275,572 274,571C272,571 272,571 270,570C264,567 263,565 258,570C257,570 257,570 256,570C256,570 249,573 249,573C246,572 246,572 245,571C243,568 243,566 244,561C244,559 244,559 245,557L245,555C244,553 244,553 242,551C241,551 241,551 241,550C240,550 240,550 239,550C238,549 238,549 236,549C233,549 234,549 232,549L230,549C226,549 226,549 225,550C224,550 223,550 220,554C219,554 217,556 219,565C219,568 220,570 217,571C217,571 217,572 214,573C209,571 207,571 207,571C205,570 205,570 203,569C200,567 200,567 197,567C196,568 196,568 195,568C193,569 193,569 192,571C190,571 190,571 189,571C189,571 188,572 188,572L186,572C185,572 184,572 183,572C181,571 181,571 179,570C179,570 178,570 179,569C179,568 179,569 179,567C179,566 179,565 179,564C180,557 181,556 176,552C170,546 170,545 171,542C171,539 172,539 175,538Z" style="fill:rgb(137,84,22);fill-opacity:0.96;"/></g><g transform="matrix(1.504883,0,0,1.504883,1466.496632,270.794887)"><path d="M268,524C269,525 269,525 269,526C270,526 269,526 271,527C271,529 271,529 272,531C273,531 273,533 275,535C273,536 273,536 272,534C272,534 269,528 269,527C265,522 263,522 260,528C256,532 257,536 253,536C255,535 256,531 256,531C256,529 257,529 257,528C261,522 262,520 268,524Z" style="fill:rgb(134,82,19);fill-opacity:0.98;"/></g><g transform="matrix(1.504883,0,0,1.504883,1466.496632,270.794887)"><path d="M241,538L242,538L243,537C243,538 243,538 242,539C242,539 242,539 241,539C239,541 239,542 239,545C238,546 238,546 236,546C236,544 236,543 234,543L232,543L232,543L230,543C230,543 229,542 229,542C230,542 232,542 233,542C234,542 235,542 235,541C238,540 238,540 241,538Z" style="fill:rgb(151,99,25);fill-opacity:0.96;"/></g><g transform="matrix(1.504883,0,0,1.504883,1466.496632,270.794887)"><path d="M194,523C199,521 200,522 203,526C204,526 204,526 204,527C205,528 205,528 205,529C205,529 206,530 206,530L205,531C204,530 204,530 203,529C203,528 202,527 202,526C202,526 198,522 196,523C196,523 196,524 195,524C195,524 195,523 194,523Z" style="fill:rgb(145,96,27);fill-opacity:0.87;"/></g><g transform="matrix(1.504883,0,0,1.504883,1466.496632,270.794887)"><path d="M220,538C224,539 223,541 228,542L229,542C227,543 227,543 226,544C224,547 225,542 220,538Z" style="fill:rgb(147,98,26);fill-opacity:0.85;"/></g><g transform="matrix(1.504883,0,0,1.504883,1466.496632,270.794887)"><path d="M199,540C197,542 196,542 194,542C197,538 196,536 198,537C199,537 199,540 199,540Z" style="fill:rgb(121,119,108);fill-opacity:1;"/></g><g transform="matrix(1.504883,0,0,1.504883,1466.496632,270.794887)"><path d="M262,541C263,538 264,536 265,539C266,540 266,541 265,542C263,543 263,542 262,541Z" style="fill:rgb(120,118,109);fill-opacity:0.99;"/></g><g transform="matrix(1.504883,0,0,1.504883,1466.496632,270.794887)"><path d="M192,527C192,527 191,527 191,527C192,529 192,528 192,528C192,529 191,529 191,529C191,530 191,530 191,530C191,532 190,531 190,532C190,535 189,534 187,535L188,534C189,531 190,531 191,528C191,527 191,527 192,527Z" style="fill:rgb(144,94,26);fill-opacity:0.78;"/></g><g transform="matrix(1.504883,0,0,1.504883,1466.496632,270.794887)"><path d="M206,530L206,531C208,534 207,534 210,536C209,536 209,537 209,537C208,537 208,537 205,531L206,530Z" style="fill:rgb(135,88,25);fill-opacity:0.8;"/></g><g transform="matrix(1.504883,0,0,1.504883,1466.496632,270.794887)"><path d="M285,557C285,561 286,561 285,564C284,562 284,563 284,561C284,560 285,558 285,557Z" style="fill:rgb(130,91,37);fill-opacity:0.18;"/></g><g transform="matrix(1.504883,0,0,1.504883,1466.496632,270.794887)"><path d="M241,538C238,540 238,540 235,541C238,539 237,538 241,538Z" style="fill:rgb(147,103,35);fill-opacity:0.22;"/></g><g transform="matrix(1.504883,0,0,1.504883,1466.496632,270.794887)"><path d="M195,568C194,569 195,571 192,571C193,569 193,569 195,568Z" style="fill:rgb(159,113,40);fill-opacity:0.24;"/></g><g transform="matrix(1.504883,0,0,1.504883,1466.496632,270.794887)"><path d="M226,547C230,547 230,547 234,547C230,547 230,548 226,547Z" style="fill:rgb(188,131,36);fill-opacity:0.96;"/></g><g transform="matrix(1.504883,0,0,1.504883,1466.496632,270.794887)"><path d="M284,556C284,556 284,557 285,557C285,558 284,560 284,561C284,558 284,558 284,556Z" style="fill:rgb(164,117,49);fill-opacity:0.21;"/></g><g transform="matrix(1.504883,0,0,1.504883,1466.496632,270.794887)"><path d="M271,527C274,528 273,529 272,531C271,529 271,529 271,527Z" style="fill:rgb(158,113,41);fill-opacity:0.15;"/></g><g transform="matrix(1.504883,0,0,1.504883,1466.496632,270.794887)"><path d="M169,539C168,540 169,540 168,540C168,540 168,541 167,541C167,541 167,540 167,540C167,539 167,539 169,539Z" style="fill:none;"/></g><g transform="matrix(1.504883,0,0,1.504883,1466.496632,270.794887)"><path d="M230,549C230,549 230,550 225,550C226,549 226,549 230,549Z" style="fill:rgb(133,92,30);fill-opacity:0.36;"/></g><g transform="matrix(1.504883,0,0,1.504883,1466.496632,270.794887)"><path d="M232,549C234,549 233,549 236,549C234,550 234,550 232,549Z" style="fill:rgb(144,104,39);fill-opacity:0.41;"/></g><g transform="matrix(1.504883,0,0,1.504883,1466.496632,270.794887)"><path d="M284,570C284,572 284,572 284,572C284,572 283,572 282,572C283,571 283,571 284,570Z" style="fill:rgb(152,107,51);fill-opacity:0.18;"/></g><g transform="matrix(1.504883,0,0,1.504883,1466.496632,270.794887)"><path d="M245,557C244,559 244,559 244,561C244,560 244,559 244,559C244,558 244,557 245,557Z" style="fill:rgb(136,93,28);fill-opacity:0.35;"/></g><g transform="matrix(1.504883,0,0,1.504883,1466.496632,270.794887)"><path d="M236,549C238,549 238,549 239,550C239,549 239,549 236,549Z" style="fill:rgb(161,117,42);fill-opacity:0.29;"/></g><g transform="matrix(1.504883,0,0,1.504883,1466.496632,270.794887)"><path d="M269,526C271,527 271,527 271,527C271,527 270,527 271,527C269,526 270,526 269,526Z" style="fill:rgb(156,114,45);fill-opacity:0.21;"/></g><g transform="matrix(1.504883,0,0,1.504883,1466.496632,270.794887)"><path d="M204,527C205,527 205,526 205,528C205,528 205,528 205,529C205,528 205,528 204,527Z" style="fill:rgb(137,94,34);fill-opacity:0.34;"/></g><g transform="matrix(1.504883,0,0,1.504883,1466.496632,270.794887)"><path d="M179,567C179,569 179,568 179,569C178,570 179,570 179,570C179,570 178,570 178,569C178,569 178,569 179,567Z" style="fill:rgb(126,88,31);fill-opacity:0.2;"/></g><g transform="matrix(1.504883,0,0,1.504883,1466.496632,270.794887)"><path d="M245,564L245,568C245,566 245,566 245,564Z" style="fill:rgb(205,155,46);fill-opacity:0.98;"/></g><g transform="matrix(1.504883,0,0,1.504883,1466.496632,270.794887)"><path d="M213,573C212,574 211,574 211,574C211,574 212,574 213,573Z" style="fill:rgb(98,72,29);fill-opacity:0.07;"/></g><g transform="matrix(1.504883,0,0,1.504883,1466.496632,270.794887)"><path d="M178,560L179,564C178,562 178,562 178,560Z" style="fill:rgb(120,87,31);fill-opacity:0.11;"/></g></g></svg>