<?xml version="1.0" ?><svg xmlns="http://www.w3.org/2000/svg" xmlns:xlink="http://www.w3.org/1999/xlink" xmlns:serif="http://www.serif.com/" version="1.1" xml:space="preserve" style="fill-rule:evenodd;clip-rule:evenodd;stroke-linejoin:round;stroke-miterlimit:2;" viewBox="0 0 250 100"><g transform="matrix(1,0,0,1,-1387.993098,-1634.191986)"><g transform="matrix(1.504883,0,0,1.504883,971.466934,960.175881)"><path d="M291,451C292,450 294,450 295,450C311,450 317,450 325,451L328,451C329,452 329,452 330,453C332,454 331,455 333,456C334,457 342,458 343,455C345,453 344,453 348,451C362,448 394,449 396,453C397,454 399,466 394,468C388,471 395,481 385,483C384,483 384,483 378,483C377,483 375,483 373,483L373,483C370,483 370,483 368,483C365,483 357,483 356,483C346,483 346,482 344,475C343,465 342,465 340,465C336,464 334,464 334,469C333,479 331,479 331,480C326,483 325,482 320,483C308,483 308,483 296,483L294,482L293,482C286,480 287,478 285,471C284,469 284,469 282,468C281,466 281,466 280,464C280,464 280,456 280,454C281,451 290,451 291,451L357,455L357,456L356,457L356,457L354,457C354,457 353,457 353,458C353,458 354,458 353,458C353,459 352,459 352,459C352,460 352,461 352,462C352,462 352,462 350,463C350,465 350,468 350,471C354,472 352,473 354,477C357,477 360,478 363,478C363,478 363,476 363,476C363,476 366,474 364,478C367,478 370,478 372,478C371,472 377,477 378,478C382,477 383,477 384,473C384,465 384,466 384,460C380,458 377,459 379,455C373,455 365,455 363,455C364,457 365,457 364,458C362,458 362,457 362,455L357,455L291,451L300,455C301,458 302,459 299,459C299,459 298,457 297,458C295,459 295,458 292,457C292,458 292,459 292,461L294,461C296,467 293,468 293,469C295,479 298,478 307,478C310,476 309,476 310,475C311,473 312,475 315,475C321,474 321,475 322,475C322,475 322,475 322,475C323,475 323,476 324,477C328,475 329,460 325,456C322,458 322,458 321,458C318,458 317,458 317,455L313,455C313,455 313,459 311,459C310,459 311,456 311,455C308,455 304,455 300,455L291,451L324,477C323,476 323,475 322,475C322,475 322,475 322,475C321,475 321,474 315,475C312,475 311,473 310,475C309,476 310,476 307,478C316,478 316,478 324,477L291,451L357,455C357,455 351,456 351,457C350,457 350,462 350,463C352,462 352,462 352,462C352,461 352,460 352,459C352,459 353,459 353,458C354,458 353,458 353,458C353,457 354,457 354,457L356,457L356,457L357,456L357,455L291,451L300,455C295,456 295,455 292,457C295,458 295,459 297,458C298,457 299,459 299,459C302,459 301,458 300,455L291,451L379,455C377,459 380,458 384,460C383,456 383,455 379,455L291,451L317,455C317,458 318,458 321,458C322,458 322,458 325,456C321,455 321,455 317,455L291,451L292,461C292,465 293,465 293,469C293,468 296,467 293,461L292,461L291,451L350,471C351,475 351,476 354,477C352,473 354,472 350,471L291,451L372,478C374,478 376,478 378,478C377,477 371,472 372,478L291,451L311,455C311,456 310,459 311,459C313,459 313,455 313,455L311,455L291,451L362,455C362,457 362,458 364,458C365,457 364,457 363,455L362,455L291,451L363,478L364,478C366,474 363,476 363,476C363,476 363,478 363,478L291,451Z" style="fill:rgb(32,29,28);fill-opacity:0.98;"/></g><g transform="matrix(1.504883,0,0,1.504883,971.466934,960.175881)"><path d="M289,455C289,456 289,455 290,456C290,456 290,456 290,456C290,459 291,459 291,459C290,459 290,458 289,460C286,463 283,456 286,455C287,455 286,456 286,457C287,458 288,457 289,455Z" style="fill:rgb(46,44,42);fill-opacity:0.99;"/></g><g transform="matrix(1.504883,0,0,1.504883,971.466934,960.175881)"><path d="M373,483C375,483 377,483 378,483C377,484 376,486 373,483Z" style="fill:rgb(54,49,47);fill-opacity:0.31;"/></g><g transform="matrix(1.504883,0,0,1.504883,971.466934,960.175881)"><path d="M278,448C281,450 277,451 277,449C277,448 277,448 278,448Z" style="fill:none;"/></g><g transform="matrix(1.504883,0,0,1.504883,971.466934,960.175881)"><path d="M369,484L371,484C370,485 370,485 369,484Z" style="fill:rgb(65,58,55);fill-opacity:0.02;"/></g></g></svg>