<?xml version="1.0" ?><svg xmlns="http://www.w3.org/2000/svg" xmlns:xlink="http://www.w3.org/1999/xlink" xmlns:serif="http://www.serif.com/" version="1.1" xml:space="preserve" style="fill-rule:evenodd;clip-rule:evenodd;stroke-linejoin:round;stroke-miterlimit:2;" viewBox="0 0 250 100"><g transform="matrix(1,0,0,1,-1532.443406,-1574.754578)"><g transform="matrix(1.504883,0,0,1.504883,907.478545,923.883962)"><path d="M443,434L444,433C444,434 444,435 444,435C443,435 443,435 442,435C442,435 440,436 439,436C436,438 436,438 432,440C427,444 426,447 426,448C426,448 426,448 424,452C424,452 423,452 423,452C423,452 423,452 425,455C427,454 427,453 428,451C437,432 461,436 467,440C479,447 479,452 480,454C483,456 483,456 486,459C486,460 486,460 487,461C487,460 488,460 489,460C491,460 491,460 493,459L493,457C494,457 496,457 498,457C504,458 503,458 510,459C510,459 514,459 509,457C509,456 509,456 509,456C507,455 508,455 508,454C510,455 511,455 511,454C511,454 511,454 515,448C516,445 517,445 519,443C521,441 521,440 524,439C527,436 527,436 531,434L535,434L535,433C536,434 537,434 538,435L538,434L540,434L540,434L542,434L542,434L544,434L544,434L546,434L546,434C551,434 554,435 554,435L556,434C557,434 558,435 559,435C561,436 563,436 569,443C573,446 572,446 575,450C576,453 579,451 580,454C581,456 581,456 581,459C581,462 582,462 580,464C577,466 576,466 576,471C574,478 573,479 570,482C569,483 568,484 567,485C567,486 567,486 566,486C566,486 566,486 564,487C563,488 563,488 562,489C560,490 560,490 558,490C554,492 554,492 549,492C545,493 544,493 534,492L530,490L528,490C523,487 522,487 516,479C514,477 514,477 513,474C510,464 509,464 509,464C508,463 507,463 506,462C501,461 500,460 493,461C492,462 490,463 488,463C487,465 487,465 486,466L486,467C486,471 484,480 473,487C470,490 470,490 465,491C453,495 443,491 441,491C440,490 439,490 433,486L431,484C430,483 429,482 428,481C425,477 425,477 423,472L422,469C421,466 420,467 417,464C415,461 415,461 416,458C416,455 416,455 418,453C421,452 421,452 423,449L424,447C424,446 426,445 428,442C430,440 430,440 433,438C434,437 434,437 435,437C435,437 435,437 437,436C440,435 440,435 443,434Z" style="fill:rgb(28,27,26);fill-opacity:0.99;"/></g><g transform="matrix(1.504883,0,0,1.504883,907.478545,923.883962)"><path d="M541,440C543,440 551,440 556,443C578,455 567,485 547,486C514,487 507,445 541,440Z" style="fill:rgb(249,248,246);fill-opacity:0.99;"/></g><g transform="matrix(1.504883,0,0,1.504883,907.478545,923.883962)"><path d="M456,440C493,446 479,494 445,485C423,478 422,439 456,440Z" style="fill:rgb(249,249,246);fill-opacity:0.99;"/></g><g transform="matrix(1.504883,0,0,1.504883,907.478545,923.883962)"><path d="M444,433C455,431 462,434 464,434C464,435 464,435 464,436C465,436 465,436 470,438C477,443 480,449 480,449C481,448 481,447 482,447C483,449 483,449 484,451C485,454 486,454 487,455C486,457 485,457 486,459C483,456 483,456 480,454C479,452 479,447 467,440C461,436 437,432 428,451C427,453 427,454 425,455C423,452 423,452 423,452C423,452 424,452 424,452C426,448 426,448 426,448C426,447 427,444 432,440C436,438 436,438 439,436C440,436 442,435 442,435C443,435 443,435 444,435C444,435 444,434 444,433Z" style="fill:rgb(59,58,55);fill-opacity:0.98;"/></g><g transform="matrix(1.504883,0,0,1.504883,907.478545,923.883962)"><path d="M495,453L498,452C503,453 503,453 508,454C508,455 507,455 509,456C509,456 509,456 509,457C514,459 510,459 510,459C503,458 504,458 498,457C496,457 494,457 493,457C492,458 490,458 489,458L489,460C488,460 487,460 487,461L486,459C485,457 486,457 487,455C490,453 490,453 495,453Z" style="fill:rgb(52,50,47);fill-opacity:0.99;"/></g><g transform="matrix(1.504883,0,0,1.504883,907.478545,923.883962)"><path d="M464,434C467,435 467,435 470,437C476,440 476,440 480,445L482,447C481,447 481,448 480,449C480,449 477,443 470,438C465,436 465,436 464,436C464,435 464,435 464,434Z" style="fill:rgb(9,9,8);fill-opacity:0.98;"/></g><g transform="matrix(1.504883,0,0,1.504883,907.478545,923.883962)"><path d="M535,433C548,431 554,434 556,434L554,435C554,435 551,434 546,434L546,434L544,434L544,434L542,434L542,434L540,434L540,434L538,434L538,435C537,434 536,434 535,433Z" style="fill:rgb(4,4,3);fill-opacity:0.98;"/></g><g transform="matrix(1.504883,0,0,1.504883,907.478545,923.883962)"><path d="M493,457L492,459C491,460 491,460 489,460L490,458C490,458 492,458 493,457Z" style="fill:rgb(43,41,38);fill-opacity:0.99;"/></g></g></svg>