<?xml version="1.0" ?><svg xmlns="http://www.w3.org/2000/svg" xmlns:xlink="http://www.w3.org/1999/xlink" xmlns:serif="http://www.serif.com/" version="1.1" xml:space="preserve" style="fill-rule:evenodd;clip-rule:evenodd;stroke-linejoin:round;stroke-miterlimit:2;" viewBox="0 0 250 100"><g transform="matrix(1,0,0,1,-973.440086,-1720.835268)"><g transform="matrix(1.504883,0,0,1.504883,907.478545,923.883962)"><path d="M64,530C73,529 72,529 81,530L82,530C87,531 87,531 92,533C100,540 101,540 105,539C106,537 107,536 109,535C112,533 112,533 115,532L116,531C124,529 124,530 131,530L133,530C134,530 135,530 136,530C140,530 140,530 143,531C145,531 147,532 148,533C154,535 154,537 157,540C161,546 161,546 161,546C161,549 161,549 160,551C159,553 159,553 158,555C157,556 156,558 155,560C153,564 153,564 150,566C146,570 138,576 122,569C118,567 118,567 115,565C115,564 115,564 115,564C115,564 115,564 114,562C114,562 112,561 109,554C106,547 105,543 98,547C97,549 97,549 96,551L94,556C92,559 90,562 88,564C82,570 81,571 73,572C69,572 69,572 65,572L62,572C61,571 60,571 59,570C55,568 54,568 52,564C50,562 50,562 49,558C47,551 46,552 45,550C43,546 44,546 46,542C48,539 48,539 50,537C52,535 52,535 54,534L55,533C59,531 59,531 64,530Z" style="fill:rgb(21,19,18);fill-opacity:0.98;"/></g><g transform="matrix(1.504883,0,0,1.504883,907.478545,923.883962)"><path d="M61,534C61,537 60,539 67,543C71,546 83,546 82,536C82,536 82,535 81,535C81,534 81,535 81,534C81,534 86,530 93,538C97,542 89,558 85,561C66,579 45,556 50,543C52,540 52,535 61,534Z" style="fill:rgb(51,49,47);fill-opacity:0.99;"/></g><g transform="matrix(1.504883,0,0,1.504883,907.478545,923.883962)"><path d="M121,537C121,537 123,549 133,543C134,543 134,544 134,544C135,544 138,544 140,543C146,540 147,542 150,537C150,537 151,537 153,542C155,545 156,546 154,549C154,549 154,551 154,551C155,570 118,580 110,545L112,544C115,541 116,535 121,537Z" style="fill:rgb(45,45,42);fill-opacity:1;"/></g><g transform="matrix(1.504883,0,0,1.504883,907.478545,923.883962)"><path d="M61,534C63,534 69,533 81,534C81,535 81,534 81,535C82,535 82,536 82,536C83,546 71,546 67,543C60,539 61,537 61,534Z" style="fill:rgb(152,151,147);fill-opacity:0.99;"/></g><g transform="matrix(1.504883,0,0,1.504883,907.478545,923.883962)"><path d="M132,534C146,534 148,536 150,537C147,542 146,540 140,543C138,544 135,544 134,544C134,544 134,543 133,543C136,539 134,539 132,534Z" style="fill:rgb(80,79,75);fill-opacity:1;"/></g><g transform="matrix(1.504883,0,0,1.504883,907.478545,923.883962)"><path d="M120,534C126,534 126,534 132,534C134,539 136,539 133,543C123,549 121,537 121,537C121,536 121,535 120,534Z" style="fill:rgb(153,153,150);fill-opacity:0.99;"/></g><g transform="matrix(1.504883,0,0,1.504883,907.478545,923.883962)"><path d="M120,534C121,535 121,536 121,537C116,535 115,541 111,544L110,545C110,539 110,536 120,534Z" style="fill:rgb(93,92,89);fill-opacity:1;"/></g><g transform="matrix(1.504883,0,0,1.504883,907.478545,923.883962)"><path d="M44,539C45,539 46,539 46,539C46,539 45,539 44,539Z" style="fill:none;"/></g></g></svg>